<?xml version="1.0" encoding="utf-8"?>

<svg xmlns="http://www.w3.org/2000/svg" xmlns:xlink="http://www.w3.org/1999/xlink" 
  height="512" width="512" viewBox="0 0 512 512">




  <!-- 臉 -->
  <path d="M90 185 Q49 260 67 320 Q91 390 170 410 Q260 430 350 411 Q420 396 442 325 Q455 260 430 190 Q440 120 420 95 Q400 80 340 125 Q260 109 180 125 Q110 95 95 105 Q66 120 85 195" stroke="black" fill="white" stroke-width="11"/>
  <!-- 左鬍鬚 -->
  <path d="M15 290 Q64 285 62 290" stroke="black" stroke-width="9" fill="none"/> 
  <path d="M35 340 Q65 326 70 330" stroke="black" stroke-width="9" fill="none"/> 
  <path d="M50 390 Q90 360 90 360" stroke="black" stroke-width="9" fill="none"/> 
  <!-- 右鬍鬚  -->
  <path d="M446 285 Q448 275 500 290" stroke="black" stroke-width="9" fill="none"/> 
  <path d="M440 320 Q465 318 485 330" stroke="black" stroke-width="9" fill="none"/> 
  <path d="M428 357 Q448 365 480 382" stroke="black" stroke-width="9" fill="none"/> 
  <!-- 眼睛+鼻子 -->
  <ellipse stroke="black" fill="black"  stroke-width="3" cx="155" cy="300" rx="10" ry="17"/>
  <ellipse stroke="black" fill="black"  stroke-width="3" cx="355" cy="300" rx="10" ry="17"/>
  <ellipse stroke="black" fill="#af931c"  stroke-width="6" cx="257" cy="340" rx="19" ry="13"/>
  <!-- 蝴蝶結  -->
  <path d="M300 90 Q350 70 360 180 Q380 240 400 244 C420 250 463 235 455 170 Q446 130 390 160 L320 200 Q260 215 256 175 Q265 115 302 89" stroke="black" stroke-width="11" fill="#e72235"/> 
  <ellipse stroke="black" fill="#e72235"  stroke-width="11" cx="322" cy="159" rx="20" ry="20"/>
  <ellipse stroke="black" fill="#e72235"  stroke-width="11" cx="400" cy="195" rx="16" ry="16"/>
  <ellipse stroke="black" fill="#e72235"  stroke-width="11" cx="360" cy="180" rx="35" ry="35"/>
 <path d="M190 380 Q250 400 320 380" stroke="black" stroke-width="9" fill="none"/> 
  <path d="M110 260 Q150 300 200 250" stroke="black" stroke-width="9" fill="none"/> 
<path d="M310 260 Q350 300 390 260" stroke="black" stroke-width="9" fill="none"/> 
</svg>


  <path d="M256 256 V270 V242 M256 256 H270 H242" stroke="black" fill="white"></path>

  <text x="254" y="250" font-size="16" text-anchor="middle" fill="red">(256, 256)</text>

  <ellipse fill="#77DD47" stroke="#246614" stroke-width="5" cx="256" cy="270" rx="200" ry="150" opacity="0.2"/>

  <path d="M456 256 A200 140, 0, 0, 0, 56 256" stroke-width="10" stroke="#F00" fill="none" opacity="0.3"/>

  <circle id="c1" cx="456" cy="256" r="1" stroke="red" fill="none">
    <animate attributeName="r" to="10" dur="2s" repeatCount="indefinite"/>
  </circle>

  <circle id="c2" cx="56" cy="256" r="1" stroke="red" fill="none">
    <animate attributeName="r" to="10" dur="2s" repeatCount="indefinite"/>
  </circle>

  <circle cx="0" cy="0" r="1" stroke="blue" fill="none">
    <animateMotion dur="6s" path="M456 256 A200 140, 0, 0, 0, 56 256" repeatCount="indefinite" rotate="auto"/>
    <animate attributeName="r" to="15" dur="6s" repeatCount="indefinite"/>
  </circle>
</svg>
    