<?xml version="1.0" encoding="UTF-8" standalone="no"?>
<!-- Generator: Adobe Illustrator 24.0.1, SVG Export Plug-In . SVG Version: 6.00 Build 0)  -->

<svg
   version="1.1"
   id="Layer_1"
   x="0px"
   y="0px"
   width="1200px"
   height="1200px"
   viewBox="0 0 1200 1200"
   style="enable-background:new 0 0 1200 1200;"
   xml:space="preserve"
   sodipodi:docname="initEdit.svg"
   inkscape:version="1.2.1 (9c6d41e410, 2022-07-14)"
   xmlns:inkscape="http://www.inkscape.org/namespaces/inkscape"
   xmlns:sodipodi="http://sodipodi.sourceforge.net/DTD/sodipodi-0.dtd"
   xmlns="http://www.w3.org/2000/svg"
   xmlns:svg="http://www.w3.org/2000/svg"><defs
   id="defs249" /><sodipodi:namedview
   id="namedview247"
   pagecolor="#ffffff"
   bordercolor="#000000"
   borderopacity="0.25"
   inkscape:showpageshadow="2"
   inkscape:pageopacity="0.0"
   inkscape:pagecheckerboard="0"
   inkscape:deskcolor="#d1d1d1"
   showgrid="false"
   inkscape:zoom="0.73608933"
   inkscape:cx="570.58292"
   inkscape:cy="425.22013"
   inkscape:window-width="806"
   inkscape:window-height="829"
   inkscape:window-x="-1"
   inkscape:window-y="9"
   inkscape:window-maximized="0"
   inkscape:current-layer="Layer_1" />
<g
   id="skeleton_1_"
   inkscape:label="skeleton"
   sodipodi:insensitive="true"
   style="opacity:0.2">
	<polygon
   style="fill:none;stroke:#000000;stroke-miterlimit:10"
   points="569.1,565.3 685.5,564.5 731.7,349.5 518.8,349.5 "
   id="polygon130" />
	<polyline
   style="fill:none;stroke:#000000;stroke-miterlimit:10"
   points="517.8,349.5 415.1,349.5 251.8,355.8  "
   id="polyline132" />
	<polyline
   style="fill:none;stroke:#000000;stroke-miterlimit:10"
   points="733.2,349.1 836.4,349.1 999.7,355.5  "
   id="polyline134" />
	<polyline
   style="fill:none;stroke:#000000;stroke-miterlimit:10"
   points="569.1,565.3 575.5,725.5 575.5,933.5  "
   id="polyline136" />
	<polyline
   style="fill:none;stroke:#000000;stroke-miterlimit:10"
   points="685.5,564.5 685.5,725.5 685.5,933.5  "
   id="polyline138" />
	<polyline
   style="fill:none;stroke:#000000;stroke-miterlimit:10"
   points="624.5,170 604.7,172.5 592.2,182 583.6,196.1    581.1,205.4 580.3,217.1 580.3,226.6 581.1,248.3 587.9,268.3 599.5,280.8 609.5,287.5 624.5,290.7 639.3,287.9 649.3,281.2    660.9,268.6 667.7,248.6 668.5,227 668.5,217.4 667.7,205.7 665.2,196.5 657,182 644.4,172.5 624.5,170  "
   id="polyline140" />
	<polyline
   style="fill:none;stroke:#000000;stroke-miterlimit:10"
   points="588.5,206.9 592.5,203.2 598.7,202.2 606,202.2    615.8,206.2  "
   id="polyline142" />
	<polygon
   style="fill:none;stroke:#000000;stroke-miterlimit:10"
   points="599.9,211.4 606.2,211.4 611.4,215.6 606.2,216.6 599.9,217.4 594.7,215.1 "
   id="polygon144" />
	<polyline
   style="fill:none;stroke:#000000;stroke-miterlimit:10"
   points="613,233.2 618.2,233.2 623.7,234 623.7,228.7    623.7,221.6 623.7,216.1 623.7,210.3  "
   id="polyline146" />
	<polyline
   style="fill:none;stroke:#000000;stroke-miterlimit:10"
   points="660,206.5 656,203.6 649.7,202.1 642.4,202.5    632.4,205.7  "
   id="polyline148" />
	<polygon
   style="fill:none;stroke:#000000;stroke-miterlimit:10"
   points="648.8,211.4 642.5,211.4 637.4,215.6 642.5,216.6 648.8,217.4 654.1,215.1 "
   id="polygon150" />
	<polyline
   style="fill:none;stroke:#000000;stroke-miterlimit:10"
   points="634.1,233.2 629.1,233.2 623.7,234  "
   id="polyline152" />
	<polygon
   style="fill:none;stroke:#000000;stroke-miterlimit:10"
   points="613.9,251.9 620.4,250.8 624.5,251.7 628.7,250.8 635.1,251.9 642,255.3 635.6,261.6 628.5,264.4 624.5,264.9 620.4,264.4 613.4,261.6 607,255.3 "
   id="polygon154" />
	<polyline
   style="fill:none;stroke:#000000;stroke-miterlimit:10"
   points="607,255.3 610.6,255.6 620.6,254.8 624.5,255.3    628.5,254.8 638.4,255.6 642,255.3  "
   id="polyline156" />
	<polyline
   style="fill:none;stroke:#000000;stroke-miterlimit:10"
   points="607,255.3 610.6,255.6 620.6,257.7 624.5,258.5    628.5,257.7 638.4,255.6 642,255.3  "
   id="polyline158" />
	<circle
   id="rightShoulder"
   cx="518.90002"
   cy="349.20001"
   r="8.1999998" />
	<circle
   id="rightElbow"
   cx="415.39999"
   cy="349.29999"
   r="8.1999998" />
	<circle
   id="rightWrist"
   cx="252"
   cy="355.70001"
   r="8.1999998" />
	<circle
   id="rightHip"
   cx="569.20001"
   cy="565"
   r="8.1999998" />
	<circle
   id="rightKnee"
   cx="575.59998"
   cy="725.20001"
   r="8.1999998" />
	<circle
   id="rightAnkle"
   cx="575.59998"
   cy="933.20001"
   r="8.1999998" />
	<circle
   id="leftElbow"
   cx="836.20001"
   cy="348.89999"
   r="8.1999998" />
	<circle
   id="leftWrist"
   cx="999.59998"
   cy="355.20001"
   r="8.1999998" />
	<circle
   id="leftHip"
   cx="685.59998"
   cy="564.20001"
   r="8.1999998" />
	<circle
   id="leftKnee"
   cx="685.59998"
   cy="725.20001"
   r="8.1999998" />
	<circle
   id="leftAnkle"
   cx="685.59998"
   cy="933.20001"
   r="8.1999998" />
	<circle
   id="rightEye0"
   cx="594.70001"
   cy="215.10001"
   r="0.80000001" />
	<circle
   id="rightBrow1"
   cx="592.5"
   cy="203.2"
   r="0.80000001" />
	<circle
   id="rightBrow4"
   cx="615.79999"
   cy="206.2"
   r="0.80000001" />
	<circle
   id="nose1"
   cx="623.70001"
   cy="216.10001"
   r="0.80000001" />
	<circle
   id="rightBrow3"
   cx="606"
   cy="202.2"
   r="0.80000001" />
	<circle
   id="rightEye1"
   cx="599.90002"
   cy="211.39999"
   r="0.80000001" />
	<circle
   id="rightBrow0"
   cx="588.5"
   cy="206.89999"
   r="0.80000001" />
	<circle
   id="rightBrow2"
   cx="598.70001"
   cy="202.2"
   r="0.80000001" />
	<circle
   id="rightEye5"
   cx="599.90002"
   cy="217.39999"
   r="0.80000001" />
	<circle
   id="rightEye2"
   cx="606.20001"
   cy="211.39999"
   r="0.80000001" />
	<circle
   id="rightEye3"
   cx="611.40002"
   cy="215.60001"
   r="0.80000001" />
	<circle
   id="nose0"
   cx="623.70001"
   cy="210.3"
   r="0.80000001" />
	<circle
   id="nose3"
   cx="623.70001"
   cy="228.7"
   r="0.80000001" />
	<circle
   id="rightNose0"
   cx="613"
   cy="233.2"
   r="0.80000001" />
	<circle
   id="rightMouthCorner"
   cx="607"
   cy="255.3"
   r="0.80000001" />
	<circle
   id="rightNose1"
   cx="618.20001"
   cy="233.2"
   r="0.80000001" />
	<circle
   id="rightUpperLipTop0"
   cx="613.90002"
   cy="251.89999"
   r="0.80000001" />
	<circle
   id="nose2"
   cx="623.70001"
   cy="221.60001"
   r="0.80000001" />
	<circle
   id="nose4"
   cx="623.70001"
   cy="234"
   r="0.80000001" />
	<circle
   id="upperLipTopMid"
   cx="624.5"
   cy="251.7"
   r="0.80000001" />
	<circle
   id="rightUpperLipTop1"
   cx="620.40002"
   cy="250.8"
   r="0.80000001" />
	<path
   id="rightMiddleLip"
   d="m 610.6,254.8 c 0.4,0 0.8,0.4 0.8,0.8 0,0.4 -0.4,0.8 -0.8,0.8 -0.4,0 -0.8,-0.4 -0.8,-0.8 0,-0.4 0.4,-0.8 0.8,-0.8 z" />
	<circle
   id="lowerLipBottomMid"
   cx="624.5"
   cy="264.89999"
   r="0.80000001" />
	<circle
   id="upperLipBottomMid"
   cx="624.5"
   cy="255.3"
   r="0.80000001" />
	<circle
   id="lowerLipTopMid"
   cx="624.5"
   cy="258.39999"
   r="0.80000001" />
	<circle
   id="rightUpperLipBottom1"
   cx="620.59998"
   cy="254.8"
   r="0.80000001" />
	<circle
   id="rightLowerLipTop0"
   cx="620.59998"
   cy="257.70001"
   r="0.80000001" />
	<circle
   id="rightLowerLipBottom1"
   cx="620.40002"
   cy="264.39999"
   r="0.80000001" />
	<circle
   id="rightLowerLipBottom0"
   cx="613.40002"
   cy="261.60001"
   r="0.80000001" />
	<circle
   id="rightEye4"
   cx="606.20001"
   cy="216.60001"
   r="0.80000001" />
	<circle
   id="jawMid"
   cx="624.5"
   cy="290.70001"
   r="0.80000001" />
	<circle
   id="rightJaw7"
   cx="609.5"
   cy="287.5"
   r="0.80000001" />
	<circle
   id="rightJaw6"
   cx="599.5"
   cy="280.79999"
   r="0.80000001" />
	<circle
   id="rightJaw5"
   cx="587.90002"
   cy="268.29999"
   r="0.80000001" />
	<circle
   id="rightJaw4"
   cx="581.09998"
   cy="248.3"
   r="0.80000001" />
	<circle
   id="rightJaw3"
   cx="580.29999"
   cy="226.60001"
   r="0.80000001" />
	<circle
   id="rightJaw2"
   cx="580.29999"
   cy="217.10001"
   r="0.80000001" />
	<circle
   id="rightJaw1"
   cx="581.09998"
   cy="205.39999"
   r="0.80000001" />
	<circle
   id="rightJaw0"
   cx="583.59998"
   cy="196.10001"
   r="0.80000001" />
	<circle
   id="topMid"
   cx="624.70001"
   cy="170"
   r="0.80000001" />
	<circle
   id="leftTop0"
   cx="644.40002"
   cy="172.5"
   r="0.80000001" />
	<circle
   id="leftTop1"
   cx="657"
   cy="182"
   r="0.80000001" />
	<circle
   id="leftEye0"
   cx="654.29999"
   cy="215.10001"
   r="0.80000001" />
	<circle
   id="leftBrow1"
   cx="656.20001"
   cy="203.60001"
   r="0.80000001" />
	<circle
   id="leftBrow4"
   cx="632.59998"
   cy="205.7"
   r="0.80000001" />
	<circle
   id="leftBrow3"
   cx="642.59998"
   cy="202.5"
   r="0.80000001" />
	<circle
   id="leftEye1"
   cx="649.09998"
   cy="211.39999"
   r="0.80000001" />
	<circle
   id="leftBrow0"
   cx="660.20001"
   cy="206.5"
   r="0.80000001" />
	<circle
   id="leftBrow2"
   cx="649.90002"
   cy="202.10001"
   r="0.80000001" />
	<circle
   id="leftEye5"
   cx="649.09998"
   cy="217.39999"
   r="0.80000001" />
	<circle
   id="leftEye2"
   cx="642.79999"
   cy="211.39999"
   r="0.80000001" />
	<circle
   id="leftEye3"
   cx="637.59998"
   cy="215.60001"
   r="0.80000001" />
	<circle
   id="leftNose0"
   cx="634.09998"
   cy="233.2"
   r="0.80000001" />
	<circle
   id="leftMouthCorner"
   cx="642"
   cy="255.3"
   r="0.80000001" />
	<circle
   id="leftNose1"
   cx="629.29999"
   cy="233.2"
   r="0.80000001" />
	<circle
   id="leftUpperLipTop0"
   cx="635.09998"
   cy="251.89999"
   r="0.80000001" />
	<circle
   id="leftUpperLipTop1"
   cx="628.70001"
   cy="250.8"
   r="0.80000001" />
	<path
   id="leftMiddleLip"
   d="m 638.4,254.8 c 0.4,0 0.8,0.4 0.8,0.8 0,0.4 -0.4,0.8 -0.8,0.8 -0.4,0 -0.8,-0.4 -0.8,-0.8 0,-0.4 0.4,-0.8 0.8,-0.8 z" />
	<circle
   id="leftUpperLipBottom1"
   cx="628.5"
   cy="254.8"
   r="0.80000001" />
	<circle
   id="leftLowerLipTop0"
   cx="628.5"
   cy="257.70001"
   r="0.80000001" />
	<circle
   id="leftLowerLipBottom1"
   cx="628.70001"
   cy="264.39999"
   r="0.80000001" />
	<circle
   id="leftLowerLipBottom0"
   cx="635.59998"
   cy="261.60001"
   r="0.80000001" />
	<circle
   id="leftEye4"
   cx="642.79999"
   cy="216.60001"
   r="0.80000001" />
	<circle
   id="leftJaw7"
   cx="639.29999"
   cy="287.89999"
   r="0.80000001" />
	<circle
   id="leftJaw6"
   cx="649.29999"
   cy="281.20001"
   r="0.80000001" />
	<circle
   id="leftJaw5"
   cx="660.90002"
   cy="268.60001"
   r="0.80000001" />
	<circle
   id="leftJaw4"
   cx="667.70001"
   cy="248.60001"
   r="0.80000001" />
	<circle
   id="leftJaw3"
   cx="668.5"
   cy="227"
   r="0.80000001" />
	<circle
   id="leftJaw2"
   cx="668.5"
   cy="217.39999"
   r="0.80000001" />
	<circle
   id="leftJaw1"
   cx="667.70001"
   cy="205.7"
   r="0.80000001" />
	<circle
   id="leftJaw0"
   cx="665.20001"
   cy="196.5"
   r="0.80000001" />
	<circle
   id="rightTop0"
   cx="604.79999"
   cy="172.5"
   r="0.80000001" />
	<circle
   id="rightTop1"
   cx="592.20001"
   cy="182"
   r="0.80000001" />
	<circle
   id="leftShoulder"
   cx="731.79999"
   cy="349.20001"
   r="8.1999998" />
</g>
<g
   inkscape:groupmode="layer"
   id="layer1"
   inkscape:label="Layer 1" /><path
   style="fill:#008000"
   d="m 491.78813,271.70615 c 0.64357,-6.72301 1.58864,-13.6074 2.71707,-20.37796 0.68965,-4.13791 1.69541,-8.14018 2.71706,-12.22678 0.95896,-3.83585 -0.95897,-8.39092 0,-12.22677 0.15532,-0.6213 1.07212,-0.78573 1.35853,-1.35853 1.62677,-3.25356 0,-19.98942 0,-24.45356 0,-7.11279 -1.5466,-25.05982 0,-31.24621 0.69917,-2.79668 3.27558,-4.39262 4.07559,-6.79265 0.84353,-2.53058 0.19073,-4.45706 1.35853,-6.79265 0.57281,-1.14562 2.14426,-1.57145 2.71706,-2.71706 1.01163,-2.02326 1.7101,-4.77873 2.71706,-6.79266 0.40504,-0.81007 -0.54341,-1.99251 0,-2.71706 4.24778,-5.6637 10.56037,-11.61101 13.58531,-17.6609 2.71772,-5.43544 10.83399,-8.11693 14.94384,-12.22678 0.71601,-0.716 0.64252,-2.00105 1.35853,-2.71706 4.47635,-4.47635 11.16354,-4.72529 16.30237,-8.15118 2.35282,-1.56855 4.23875,-4.157175 6.79265,-5.434125 0.40504,-0.202518 0.90569,0 1.35853,0 0.90569,-0.452844 1.87454,-0.796848 2.71707,-1.358531 1.06571,-0.71048 1.50195,-2.312026 2.71706,-2.717062 0.85921,-0.286403 1.85785,0.286404 2.71706,0 1.35287,-0.450958 2.72272,-2.266103 4.07559,-2.717061 0.85921,-0.286404 1.83842,0.219661 2.71706,0 6.56027,-1.640068 -0.0673,-0.645601 4.07559,-2.717062 1.21511,-0.607553 2.75763,0.329492 4.0756,0 0.98235,-0.245589 1.7347,-1.112942 2.71706,-1.358531 3.87186,-0.967965 9.72316,0 13.58531,0 12.22677,0 24.45355,0 36.68033,0 4.41556,0 10.42528,0.903712 14.94383,0 2.80842,-0.561683 5.34277,-2.155378 8.15119,-2.717061 3.1615,-0.6323 13.58296,-1.359706 16.30237,0 1.787,0.8935 3.59689,2.104652 5.43412,2.717061 1.22268,0.40756 2.85292,-0.407559 4.07559,0 2.39097,0.79699 4.68245,3.372189 6.79266,4.075593 2.4301,0.810033 9.30995,1.158765 10.86824,2.717061 3.20762,3.207619 -7.57749,-0.714455 2.71707,2.717062 1.5791,0.526366 3.99546,0.639204 5.43412,1.358531 1.71842,0.85921 2.47701,3.009875 4.07559,4.075595 1.18602,0.79068 4.46517,0.71256 5.43412,1.35853 1.35853,0.90568 1.35853,3.1699 2.71706,4.07559 3.74496,2.49664 8.27331,5.61731 10.86825,9.50972 0.50239,0.75357 -0.40503,1.90699 0,2.71706 0.99066,1.98131 2.17328,2.17328 2.71706,2.71706 0.54564,0.54564 -0.25611,3.30724 0,4.07559 2.38769,7.16306 3.56591,15.28299 6.79266,21.73649 0.54341,1.08683 -0.54342,2.98877 0,4.07559 1.21633,2.43268 1.45174,5.62055 2.71706,8.15119 2.82694,5.65388 -0.0938,-1.45232 2.71706,1.35853 0.64042,0.64042 -0.40504,1.90699 0,2.71706 0.79126,1.58252 1.9258,2.49308 2.71706,4.07559 1.26541,2.53083 1.50032,5.7177 2.71706,8.15119 0.91919,1.83838 -0.65858,4.8169 0,6.79265 1.82289,5.46868 0.22793,10.64937 1.35853,16.30237 0.0972,3.39604 2.0019,6.29147 2.71706,9.50972 3.08958,13.90307 0.0916,2.36664 1.35854,16.30237 0.4497,4.94679 1.74532,10.08516 2.71706,14.94383 1.08485,5.42427 0.59883,29.77144 0,33.96327 -1.17121,8.19847 -3.45012,16.51752 -5.43413,24.45356 -0.53261,2.13044 0.43111,4.6371 0,6.79265 0.31176,2.72812 -2.1256,4.42683 -2.71706,6.79265 -1.79573,7.18292 -1.76911,14.81704 -4.07559,21.7365 -1.68664,5.05993 0,13.45864 0,19.01943 0,14.03815 0,28.0763 0,42.11445 0,32.15189 0,64.30379 0,96.45568 0,10.86825 0,21.7365 0,32.60474 0,4.29634 -0.69935,9.3892 0,13.58531 0.83386,5.00316 1.88322,9.94081 2.71706,14.94384 1.17495,7.04967 -1.17494,14.68682 0,21.73649 0.69551,4.17304 1.91667,8.22482 2.71706,12.22678 0.92366,4.61826 1.0816,42.94525 0,46.19004 -0.66815,2.00445 -2.14735,3.72501 -2.71706,5.43413 -2.17365,6.52094 2.17365,15.21554 0,21.73649 -2.37112,7.11336 -1.35853,-3.59751 -1.35853,9.50971 0,1.51138 1.00322,8.86181 0,10.86825 -4.80353,9.60706 -7.79895,21.53518 -12.22678,32.60474 -1.72601,4.31504 -5.75109,9.40781 -9.50971,12.22677 -1.41713,1.06285 -5.8915,1.81591 -6.79266,2.71707 -0.716,0.716 -0.516,2.15537 -1.35853,2.71706 -0.75357,0.50238 -1.83841,-0.21966 -2.71706,0 -3.72412,0.93103 -7.53079,4.18258 -10.86824,5.43412 -8.56081,3.2103 -17.15893,5.2668 -25.81209,8.15118 -1.92125,0.64042 -3.51287,2.07665 -5.43412,2.71707 -2.57763,0.85921 -5.48689,-0.53286 -8.15119,0 -0.62798,0.12559 -0.75097,1.15601 -1.35853,1.35853 -12.45978,4.15326 -25.29447,6.53385 -36.68033,12.22677 -2.02517,1.01259 -4.52843,0 -6.79265,0 -5.43412,0 -10.86825,0 -16.30237,0 -10.57639,0 -19.4693,-0.0562 -29.88768,-1.35853 -10.05989,-1.25748 -18.11565,0.45189 -27.17061,-4.07559 -4.90069,-2.45034 -24.25863,-2.13227 -25.81209,-6.79265 -1.07852,-3.23559 0.82698,-7.56034 0,-10.86825 -0.96223,-3.84892 -2.25513,-5.86881 -4.07559,-9.50971 -0.80881,-1.61762 0.25576,-5.00232 0,-6.79266 -2.14173,-14.99215 -0.0695,-1.56708 -2.71706,-9.50971 -1.31428,-3.94284 -0.33482,-9.49047 -1.35853,-13.58531 -0.59146,-2.36583 -2.23881,-4.40137 -2.71706,-6.79265 -0.44405,-2.22025 0.40503,-4.56496 0,-6.79266 -1.31622,-7.23919 -4.21351,-14.41283 -5.43412,-21.73649 -0.58358,-3.50145 0.6959,-7.38872 0,-10.86825 -0.19859,-0.99292 -1.03833,-1.75643 -1.35854,-2.71706 -0.85921,-2.57763 0.27036,-5.44761 0,-8.15118 -0.75012,-7.50129 -3.38682,-14.57095 -5.43412,-21.73649 -0.62203,-2.1771 0.28084,-4.54593 0,-6.79266 -0.39717,-3.17736 -0.73055,-6.36981 -1.35853,-9.50971 -0.19858,-0.99293 -1.21533,-1.71465 -1.35853,-2.71707 -0.64042,-4.48292 0.64042,-9.10238 0,-13.5853 -0.1432,-1.00242 -1.21533,-1.71465 -1.35853,-2.71706 -2.17305,-15.21133 -1.35853,-32.07011 -1.35853,-47.54858 0,-19.92512 0,-39.85024 0,-59.77535 0,-6.69879 1.61261,-15.28604 0,-21.7365 -0.34732,-1.38926 -1.18091,-2.65463 -1.35853,-4.07559 -0.725,-5.8 0.64559,-11.85055 0,-17.6609 -0.71073,-6.39652 -1.67763,-12.78281 -2.71706,-19.01943 -0.5365,-3.21898 0,-7.60176 0,-10.86825 0,-14.10889 1.71207,-31.13492 0,-44.83151 -1.29315,-10.34517 -2.35791,-20.94009 -4.0756,-31.24621 -3.37643,-20.25862 0.51319,6.64154 -2.71706,-9.50971 -0.53286,-2.6643 0.53286,-5.48689 0,-8.15119 -0.12559,-0.62798 -1.15601,-0.75097 -1.35853,-1.35853 -0.41702,-1.25106 -0.77715,-22.89925 0,-24.45355 1.67874,-3.35748 1.35853,0.46893 1.35853,-2.71706"
   id="path719" /><path
   style="fill:#008000"
   d="m 714.58718,703.71893 c 4.67333,3.42462 6.25217,4.35317 8.15118,8.15119 0.60756,1.2151 -0.4296,2.78677 0,4.07559 1.67874,5.03622 1.35853,-1.65598 1.35853,2.71706"
   id="path721" /><path
   style="fill:#008000"
   d="m 753.98457,681.98244 c -0.96378,6.5973 1.30585,13.84872 0,20.37796 -0.77626,3.88129 -7.19196,16.90133 -9.50972,20.37796 -1.94702,2.92054 -11.31488,5.65744 -13.5853,6.79266 -2.89015,1.44507 -5.52626,3.68417 -8.15119,5.43412 -8.24773,5.49849 4.25374,-3.91078 -6.79265,2.71706 -1.09544,0.65726 -3.8964,5.04969 -5.43412,5.43412 -2.98344,0.74586 -6.52628,-0.74586 -9.50972,0 -4.30175,1.07544 -7.85283,2.71707 -12.22678,2.71707"
   id="path723" /><path
   style="fill:#008000"
   d="m 739.04073,728.17249 c 0,1.81137 0.67273,3.7523 0,5.43412 -0.37606,0.94016 -1.93917,0.71029 -2.71706,1.35853 -2.35248,1.9604 -6.14212,6.80415 -9.50972,8.15118 -2.1439,0.85757 -4.72736,0.32589 -6.79265,1.35853 -7.69347,3.84674 -16.88545,8.02195 -25.81208,9.50972 -2.23341,0.37224 -4.57241,-0.44405 -6.79266,0 -2.80841,0.56168 -5.34276,2.15538 -8.15118,2.71706 -8.18035,1.63607 -15.30656,3.48701 -23.09502,5.43412 -4.30818,1.07705 -10.499,0 -14.94384,0 -2.16457,0 -5.92193,0.55732 -8.15119,0 -1.81137,-0.45284 -3.76412,-0.52352 -5.43412,-1.35853 -3.9699,-1.98495 1.79314,-2.71706 -4.07559,-2.71706"
   id="path725" /><path
   style="fill:#008000"
   d="m 533.90259,751.26751 c 4.72813,1.58714 -0.16942,5.85927 1.35853,8.15118 0.56168,0.84253 1.87453,0.79685 2.71706,1.35853 3.12104,2.0807 -0.58254,0.77599 2.71706,4.0756 1.66383,1.66382 3.98824,1.90677 5.43412,4.07559 7.2455,10.86824 -4.98128,-4.98128 4.0756,4.07559 0.56928,0.56928 0.94685,3.25224 1.35853,4.07559 1.04035,2.0807 2.42092,1.0624 4.07559,2.71706 0.32021,0.32021 -0.32021,1.03833 0,1.35854 2.93058,2.93058 7.34007,0.7705 10.86825,1.35853 4.18999,0.69833 8.03678,2.01873 12.22677,2.71706 3.47327,0.57888 7.46229,-0.85149 10.86825,0 0.62129,0.15532 0.73055,1.23293 1.35853,1.35853 12.07175,2.41435 30.67431,-1.59984 43.47298,0 15.15247,1.89406 29.29293,1.35853 44.83152,1.35853 2.75086,0 10.70069,1.4423 13.58531,0 1.0138,-0.5069 4.98851,-2.27146 5.43412,-2.71706 6.94261,-6.94261 -5.69629,1.89479 4.07559,-5.43413 1.62014,-1.2151 4.00211,-1.28504 5.43412,-2.71706 0.32021,-0.32021 -0.20251,-0.95349 0,-1.35853 0.80246,-1.60492 3.07648,-2.57691 4.0756,-4.07559 0.58453,-0.87679 2.1287,-4.84576 2.71706,-5.43412 0.71601,-0.71601 2.00105,-0.64253 2.71706,-1.35853 0.76762,-0.76762 1.70505,-4.42212 2.71706,-5.43413 0.71601,-0.71601 2.00105,-0.64252 2.71706,-1.35853 0.88248,-0.88247 1.93162,-4.25595 2.71706,-5.43412 1.33643,-2.00464 4.64006,-4.41046 5.43413,-6.79265 0.2864,-0.85921 -0.28641,-1.85786 0,-2.71707 0.60755,-1.82266 3.00987,-2.47701 4.07559,-4.07559 0.50238,-0.75358 -0.40504,-1.90699 0,-2.71706 0.72796,-1.45592 1.9891,-1.26114 2.71706,-2.71706 0.52645,-1.0529 0.72867,-3.13081 1.35853,-4.07559 2.29632,-3.44447 6.79266,-6.43758 6.79266,-10.86825"
   id="path727" /><path
   style="fill:#008000"
   d="m 580.09263,661.60448 c -1.32555,-19.90605 5.24513,-38.31457 10.86825,-57.05829 0.9258,-3.08602 -0.55117,-5.43413 4.07559,-5.43413"
   id="path792" /><path
   style="fill:#008000"
   d="m 686.05803,671.11419 c 0.41415,11.65777 -8.98336,18.22991 -14.94384,27.17062"
   id="path794" /><path
   style="fill:#00ff00"
   d="m 699.64334,97.814215 c -21.28365,0 -42.5673,0 -63.85095,0 -6.52336,0 -14.02458,-1.058897 -20.37796,0 -0.6317,0.105283 -0.73723,1.203206 -1.35853,1.35853 -7.43689,1.859225 -15.71793,2.231315 -23.09502,4.075595 -5.72194,1.43048 -16.39661,9.60395 -20.37796,13.58531 -0.90569,0.90568 -2.14426,1.57144 -2.71706,2.71706 -0.20252,0.40503 0.40503,1.15601 0,1.35853 -0.81007,0.40503 -1.90699,-0.40504 -2.71707,0 -0.40503,0.20252 0.32021,1.03832 0,1.35853 -2.05425,2.05426 -8.09017,4.5081 -10.86824,5.43412 -1.25354,0.41785 -4.65619,0.5806 -5.43412,1.35853 -0.71601,0.71601 -0.45285,2.26422 -1.35853,2.71706 -1.21511,0.60756 -2.78678,-0.4296 -4.0756,0 -0.4296,0.14321 0.32021,1.03833 0,1.35853 -1.01259,1.01259 -2.88408,0.56419 -4.07559,1.35853 -1.17343,0.78229 -4.63813,3.2796 -5.43412,4.0756 -0.32021,0.32021 0.32021,1.03832 0,1.35853 -0.32021,0.32021 -1.03832,-0.32021 -1.35853,0 -2.18891,2.18891 -7.17175,10.64698 -8.15119,13.58531 -0.77153,2.31458 1.08179,5.9876 0,8.15118 -2.34025,4.6805 -2.71927,9.51858 -4.07559,14.94384 -0.70748,2.8299 -1.7896,5.3688 -2.71706,8.15118 -0.38191,1.14572 0.53641,3.00276 0,4.0756 -0.28641,0.5728 -1.15601,0.75097 -1.35853,1.35853 -0.54341,1.63023 0.54341,3.80388 0,5.43412 -0.66815,2.00445 -2.14736,3.725 -2.71706,5.43412 -1.64798,4.94393 0,33.12762 0,39.39739 0,29.43484 0,58.86967 0,88.3045 0,5.93359 1.16625,13.96987 -1.35853,19.01943 -1.05488,2.10975 0.74429,5.9183 0,8.15119 -0.45096,1.35287 -2.26611,2.72272 -2.71707,4.07559 -0.79877,2.39632 0.0561,8.12313 -2.71706,9.50972 -2.97714,1.48856 -2.71706,-7.77763 -2.71706,-9.50972 0,-12.28245 -1.59979,-26.20557 1.35853,-38.03886 0.63931,-2.55723 -0.63931,-5.59395 0,-8.15119 0.59218,-2.3687 2.12489,-4.42395 2.71706,-6.79265 0.98777,-3.95107 0,-9.52336 0,-13.58531 0,-12.22677 0,-24.45355 0,-36.68033 0,-4.71983 -1.45429,-17.37362 0,-21.73649 0.20252,-0.60755 1.20321,-0.73723 1.35853,-1.35853 0.52895,-2.1158 2.64778,-15.40169 2.71707,-16.30237 1.06541,-13.85039 0,-28.184 0,-42.11445 0,-3.34774 -1.57109,-10.44313 0,-13.58531 2.1327,-4.2654 5.53195,-9.65646 8.15118,-13.58531 1.7762,-2.6643 4.93148,-4.18701 6.79265,-6.79265 1.17711,-1.64796 1.5937,-3.74907 2.71707,-5.43412 3.35445,-5.03169 10.8281,-10.84818 16.30236,-13.58531 3.08466,-1.54233 6.23794,-2.985 9.50972,-4.07559 0.85921,-0.28641 1.85785,0.2864 2.71706,0 1.92125,-0.64042 3.48687,-2.16071 5.43412,-2.71707 1.30626,-0.37321 2.78678,0.42961 4.0756,0 1.54896,-0.51632 2.52663,-2.20074 4.07559,-2.71706 3.93742,-1.31247 9.46974,-0.32964 13.58531,-1.35853 5.37326,-1.34331 10.88071,-3.88508 16.30237,-5.43412 1.81137,-0.45284 3.62274,-0.90569 5.43412,-1.35853 1.35853,0 2.74344,0.26643 4.07559,0 2.17426,-0.43485 9.73782,-2.15185 10.86825,-2.71706 0.5728,-0.28641 0.75097,-1.15602 1.35853,-1.35853 7.62222,-2.540745 23.60258,2.54787 31.2462,0 3.80065,-1.266887 7.09928,-0.41629 10.86825,-1.358535 10.53054,-2.632634 22.9261,-1.35853 33.96327,-1.35853 z"
   id="path796" /><path
   style="fill:#00ff00"
   d="m 589.60235,218.72345 c -0.88728,-14.88208 0.56264,-29.4212 4.07559,-43.47298 0.872,-3.48802 4.89853,-9.38559 6.79265,-12.22678 0.71048,-1.06572 2.14426,-1.57145 2.71707,-2.71706 0.40503,-0.81007 -0.28641,-1.85785 0,-2.71706 0.88082,-2.64247 3.74985,-6.03196 6.79265,-6.79266 2.19661,-0.54915 4.59604,0.54916 6.79265,0 0.6213,-0.15532 0.76392,-1.12068 1.35853,-1.35853 5.17128,-2.06851 15.31558,-2.53119 20.37797,0 1.46037,0.73019 3.09594,1.41086 4.07559,2.71706 1.19833,1.59778 4.44783,8.89567 5.43412,10.86825 1.3053,2.6106 4.12883,4.18206 5.43412,6.79265 1.6864,3.3728 3.66448,7.32895 5.43413,10.86825 3.66951,7.33903 1.35853,25.37792 1.35853,33.96327 0,11.32109 0,22.64218 0,33.96327 0,5.03222 1.20734,11.47301 0,16.30237 -0.29583,1.18331 -2.42123,4.25081 -2.71706,5.43412 -1.66558,6.66231 0,20.62739 0,28.52915 0,7.93235 -1.35853,15.03461 -1.35853,23.09502 0,0.5533 -0.33896,5.26464 0,5.43412 0.91884,0.45943 6.79265,-1.17452 6.79265,1.35853 0,0.45285 -1.15601,-0.40503 -1.35853,0 0,6.18442 0.64042,0.0777 -1.35853,4.0756 -1.95924,3.91846 1.59473,10.21831 2.71706,13.5853 1.64238,4.92715 0,23.73403 0,28.52915 0,5.5261 -1.69859,19.35777 0,24.45355 1.9583,5.87492 4.36791,12.62219 5.43412,19.01943 0.72651,4.35905 0.19663,10.87719 1.35853,14.94384 0.44855,1.56993 2.20074,2.52663 2.71706,4.07559 1.14562,3.43684 -0.78588,7.33177 0,10.86825 0.43933,1.97695 2.16071,3.48687 2.71707,5.43412 0.37321,1.30626 -0.22334,2.73555 0,4.0756 0.23542,1.41253 1.18091,2.65463 1.35853,4.07559 0.61399,4.91195 -0.54665,10.02406 0,14.94384 2.02855,18.25698 1.35853,-3.60765 1.35853,20.37796 0,14.42472 -0.0776,16.69042 -2.71706,29.88767 -2.06273,10.31362 -3.0377,20.86727 -4.0756,31.24621 -0.22529,2.25298 0.32021,4.55119 0,6.79265 -0.33536,2.34752 -2.3817,5.80367 -2.71706,8.15119 -0.76058,5.32407 0.66711,10.96554 0,16.30237 -0.68282,5.4626 -2.02861,10.79479 -2.71706,16.30237 -0.79959,6.39675 0.27607,8.40544 -1.35853,14.94384 -0.96444,3.85774 -1.08396,13.32504 0,17.6609 0.90834,3.63337 2.12347,1.60944 1.35853,5.43412 -2.26736,11.3368 -0.30189,-1.66043 -2.71706,6.79265 -4.99071,17.46749 0.6217,-1.01316 -1.35853,10.86825 -1.09517,6.57103 -5.53498,12.42849 -8.15119,17.6609 -0.96115,1.9223 0.33454,4.21348 -2.71706,5.43412 -3.64146,1.45658 -31.97393,5.968 -33.96327,0 -0.67926,-2.03779 0.67927,-4.75486 0,-6.79265 -0.20251,-0.60756 -1.15601,-0.75098 -1.35853,-1.35853 -1.67166,-5.01501 0.36387,-16.76316 1.35853,-21.7365 0.74678,-3.73385 0,-8.43449 0,-12.22677 0,-9.50972 0,-19.01943 0,-28.52915 0,-24.00071 0,-48.00142 0,-72.00213 0,-10.1024 1.00815,-21.16472 0,-31.24621 -0.38151,-3.81508 -1.59845,-14.30506 -2.71706,-17.6609 -0.51632,-1.54896 -2.20074,-2.52662 -2.71706,-4.07559 -1.13211,-3.39632 0.75474,-3.77369 0,-6.79265 -0.24559,-0.98236 -1.15995,-1.72414 -1.35853,-2.71706 -0.26643,-1.33215 0.32949,-2.75763 0,-4.0756 -0.15532,-0.62129 -1.15601,-0.75097 -1.35853,-1.35853 -1.05257,-3.1577 0.65295,-7.60347 0,-10.86824 -0.19859,-0.99293 -1.15995,-1.72414 -1.35853,-2.71706 -0.26643,-1.33215 0.37322,-2.76934 0,-4.0756 -0.55636,-1.94725 -2.07665,-3.51287 -2.71706,-5.43412 -2.92722,-8.78164 -5.25268,-19.28926 -6.79266,-28.52914 -0.80813,-4.84877 0.69554,-10.07511 0,-14.94384 -0.59043,-4.13305 -2.12662,-8.09373 -2.71706,-12.22678 -0.6203,-4.34212 0,-9.19179 0,-13.58531 0,-11.77393 0,-23.54786 0,-35.3218 0,-3.26543 0.1432,0.57281 -1.35853,-5.43412 -2.02448,-8.09791 2.02448,-17.71418 0,-25.81208 -1.12788,-4.51154 -2.08178,-4.42744 -2.71706,-9.50972 -0.22467,-1.79739 0.29779,-3.64739 0,-5.43412 -0.33294,-1.99763 -2.22588,-3.46941 -2.71706,-5.43413 -0.94255,-3.77018 -0.10619,-7.11121 -1.35853,-10.86824 -1.05635,-3.16904 0,-8.99878 0,-12.22678 0,-7.46543 -1.69147,-19.04622 0,-25.81208 2.30357,-9.21428 2.71706,-17.25468 2.71706,-27.17062 z"
   id="path798" /><path
   style="fill:#00ff00"
   d="m 574.65851,256.76231 c 4.24402,2.79317 9.15931,1.61057 13.58531,2.71706 0.98235,0.24559 1.72413,1.15995 2.71706,1.35854 4.43514,0.88702 42.13419,1.01396 46.19005,0 0.62129,-0.15533 0.78572,-1.07213 1.35853,-1.35854 2.88269,-1.44134 7.92062,-1.24325 10.86824,-2.71706 0.40504,-0.20251 -0.32021,-1.03832 0,-1.35853 0.58836,-0.58836 4.55733,-2.13253 5.43412,-2.71706 1.06572,-0.71048 1.50196,-2.31203 2.71707,-2.71706 2.58913,-0.86305 4.98383,-0.60549 8.15118,-2.71706 0.37679,-0.25119 -0.32021,-1.03832 0,-1.35853 0.64042,-0.64042 1.85785,0.2864 2.71706,0 0.96063,-0.32021 1.81138,-0.90569 2.71706,-1.35853 0.97029,-0.48514 15.30764,-6.06507 16.30237,-4.0756 0.40504,0.81008 -0.2864,1.85786 0,2.71707 0.20252,0.60755 1.07213,0.78572 1.35853,1.35853 1.09916,2.19831 0,8.52413 0,10.86824 0,4.55308 -1.20195,10.76386 -5.43412,13.58531 -12.33605,8.22404 -59.17566,5.43412 -76.07772,5.43412 -5.0099,0 -32.34092,1.49045 -35.3218,0 -2.79941,-1.3997 -11.88633,-4.75322 -13.58531,-8.15118 -1.8264,-3.6528 -1.80524,-7.25776 0,-10.86825 0.20252,-0.40503 -0.40503,-1.15601 0,-1.35853 4.18897,-2.09448 13.08558,1.10867 16.30237,2.71706 z"
   id="path800" /><path
   style="fill:#00ff00"
   d="m 580.09263,278.49881 c 0,19.47227 0,38.94454 0,58.41682 0,4.70684 -0.91798,10.3539 0,14.94384 0.96664,4.83317 1.35853,8.58099 1.35853,13.5853 0,9.0706 -1.69765,22.75795 0,31.24621 0.19859,0.99293 1.11295,1.73471 1.35853,2.71706 1.62811,6.51242 0,25.56508 0,33.96327 0,14.491 0,28.98199 0,43.47299 0,5.52234 -0.78306,12.17942 0,17.6609 0.20252,1.41762 1.15602,2.65796 1.35854,4.07559 0.25616,1.79317 -0.29779,3.64739 0,5.43412 0.16646,0.99881 1.21532,1.71465 1.35853,2.71706 0.32021,2.24146 -0.28085,4.54592 0,6.79266 0.17762,1.42096 1.15601,2.65796 1.35853,4.07559 1.07831,7.54819 1.76145,15.45012 2.71706,23.09502 0.65709,5.25673 0,10.98684 0,16.30237 0,11.32109 0,22.64218 0,33.96327 0,5.30201 -1.62748,12.77847 0,17.6609 0.20252,0.60755 1.15601,0.75098 1.35853,1.35853 1.4375,4.3125 -1.09627,8.6757 1.35853,13.58531 2.47225,4.94451 -2.46826,18.15849 0,23.09502 2.82694,5.65388 -0.0938,-1.45232 2.71706,1.35853 0.90569,0.90569 -0.90569,4.52844 0,5.43412 1.04286,1.04286 4.27677,0.77986 5.43412,1.35853 0.40504,0.20252 -0.20251,0.9535 0,1.35854 1.23942,2.47883 5.98668,2.17593 8.15119,2.71706 4.15898,1.03974 10.44998,2.85648 14.94384,1.35853 8.79846,-2.93282 16.34937,-19.16044 19.01943,-27.17062 0.68332,-2.04996 0.36384,-4.80327 1.35853,-6.79265 0.57281,-1.14561 2.00658,-1.65134 2.71706,-2.71706 1.52137,-2.28206 3.14369,-5.82144 4.07559,-8.15119 1.22439,-3.06095 1.5595,-6.42287 2.71706,-9.50971 1.73787,-4.63431 5.69421,-13.63327 6.79266,-17.6609 0.35745,-1.31066 0,-2.71706 0,-4.07559 0.90569,-3.16991 1.73372,-6.36304 2.71706,-9.50972 3.93666,-12.59733 9.67796,-34.56471 6.79265,-47.54858 -1.71577,-7.72097 -8.76642,-13.85464 -10.86824,-21.73649 -4.88575,-18.32156 -0.10874,-4.9455 -1.35853,-14.94384 -0.62798,-5.02385 -2.08908,-9.91999 -2.71707,-14.94384 -1.32572,-10.60577 -0.13883,-22.1232 1.35854,-32.60473 1.36009,-9.52068 0,-20.27379 0,-29.88768 0,-12.52906 1.03947,-25.56518 0,-38.03886 -1.64483,-19.73792 -0.75958,-0.6425 -2.71707,-16.30237 -0.1685,-1.34804 0.42961,-2.78678 0,-4.07559 -0.51632,-1.54897 -2.11067,-2.55962 -2.71706,-4.07559 -0.62939,-1.57348 0.27948,-5.1158 0,-6.79266 -0.6139,-3.68343 -1.69118,-7.27768 -2.71706,-10.86824 -2.42998,-8.50494 -7.82208,-14.39533 -12.22678,-21.7365 -1.02793,-1.71321 -3.49892,-5.06264 -4.07559,-6.79265 -0.2864,-0.85921 0.28641,-1.85785 0,-2.71706 -0.71601,-2.14803 -2.47455,-3.83308 -4.07559,-5.43412 -0.32021,-0.32021 -1.03832,0.3202 -1.35853,0 -4.94454,-4.94454 1.44433,-0.95455 -2.71706,-4.0756 -4.33721,-3.2529 -9.21974,-5.53184 -13.58531,-8.15118 -6.12905,-3.67743 -7.0377,-5.43412 -13.58531,-5.43412 -3.11296,0 -7.2513,-0.89989 -9.50971,1.35853"
   id="path802" /><path
   style="fill:#00ff00"
   d="m 620.84856,683.34097 c -9.07128,-9.07534 -17.6609,-20.99367 -17.6609,-33.96327 0,-0.90569 -0.64042,-2.07664 0,-2.71706 0.41425,-0.41426 8.43095,-0.35959 9.50971,0 1.54896,0.51632 2.76939,1.73741 4.07559,2.71706 1.9607,1.47052 1.29892,3.30691 2.71707,5.43412 5.73181,8.59772 1.35853,19.27028 1.35853,28.52915 z"
   id="path804" /><path
   style="fill:#00ff00"
   d="m 672.47272,271.70615 c 0.74902,6.15735 -0.36848,11.72064 -1.35853,17.6609 -0.29778,1.78673 0.57281,3.7157 0,5.43412 -0.64041,1.92126 -2.07664,3.51287 -2.71706,5.43413 -1.35617,4.06853 -0.64937,9.33038 -1.35853,13.5853 -0.23542,1.41254 -1.12311,2.66306 -1.35853,4.0756 -1.13211,6.79265 0.75474,1.50948 0,6.79265 -1.05746,7.4022 -1.35853,14.2395 -1.35853,21.73649 0,4.15087 1.41781,24.21643 0,29.88768 -0.15532,0.6213 -1.07213,0.78572 -1.35853,1.35853 -0.20252,0.40504 0,0.90569 0,1.35853 -0.45284,0.90569 -0.79685,1.87454 -1.35853,2.71706 -2.25284,3.37926 -0.31216,0.15608 -2.71706,1.35853 -4.32742,2.16371 -8.14179,1.36793 -12.22678,-2.71706 -3.24681,-3.2468 -2.22568,-9.65426 -2.71706,-13.58531 -1.53897,-12.31173 -2.93068,-26.82018 -1.35853,-39.39739 0.17762,-1.42096 1.20039,-2.65233 1.35853,-4.07559 0.4299,-3.86908 -0.81762,-9.4972 0,-13.58531 0.74263,-3.71315 2.00369,-7.30139 2.71706,-10.86824 0.26643,-1.33215 -0.4296,-2.78678 0,-4.0756 0.51632,-1.54896 2.11067,-2.55962 2.71706,-4.07559 0.33637,-0.84091 -0.17762,-1.82896 0,-2.71706 1.41347,-7.06735 0.90569,-1.35853 2.71706,-6.79265 2.63074,-7.89221 3.05158,-8.15119 10.86825,-8.15119"
   id="path806" /><path
   style="fill:#00ff00"
   d="m 614.0559,263.55497 -27.17061,2.71706"
   id="path808" /><path
   style="fill:#00ff00"
   d="m 599.11206,285.29146 c -1.81137,0.45284 -3.567,1.35853 -5.43412,1.35853 -1.88409,0 -4.88384,-4.33355 -5.43412,-5.43412 -1.24221,-2.48441 -5.38572,-2.66866 -6.79266,-4.0756 -0.64041,-0.64041 0,-1.81137 0,-2.71706 0,-6.21255 7.49484,-4.07559 12.22678,-4.07559"
   id="path810" /><path
   style="fill:#00ff00"
   d="M 616.77296,313.8206 588.24382,286.64999"
   id="path812" /><path
   style="fill:#00ff00"
   d="m 597.75353,267.63056 c -6.05934,-1.38015 -6.44524,1.86409 -10.86824,4.07559 -1.21511,0.60755 -2.78678,-0.4296 -4.0756,0 -4.2404,1.41347 0.45285,0.90569 -1.35853,2.71706 -0.45284,0.45285 -3.62274,0.90569 -4.07559,1.35853 -0.64042,0.64042 0,1.81138 0,2.71707 0,0.55939 -0.35961,3.71598 0,4.07559 0.71601,0.71601 2.00105,0.64252 2.71706,1.35853 0.32021,0.32021 -0.20251,0.95349 0,1.35853 1.85806,3.71611 7.62851,2.71706 10.86825,2.71706 1.35853,0 2.86048,0.60755 4.07559,0 0.81007,-0.40504 -0.40503,-1.90699 0,-2.71706 1.67874,-3.35748 1.35853,0.46893 1.35853,-2.71706"
   id="path814" /><path
   style="fill:#00ff00"
   d="m 623.56562,292.08411 6.79265,36.68033"
   id="path816" /><path
   style="fill:#00ff00"
   d="m 671.11419,96.455684 c -1.27535,-3.721767 5.87572,-2.683308 6.79266,-5.434123 0.21486,-0.644597 1.40549,-8.104222 1.35853,-8.151185 -2.31578,-2.315778 -42.11238,-1.358531 -48.90711,-1.358531 -3.22631,0 -15.0613,-1.299798 -17.6609,0 -5.24875,2.624379 -11.59067,6.127776 -17.6609,8.151185 -0.85921,0.286403 -1.90699,-0.405036 -2.71706,0 -0.57281,0.286403 -0.75098,1.156013 -1.35853,1.358531 -4.92037,1.640124 -11.48219,-0.248197 -16.30237,1.35853 -2.15929,0.719765 -4.7686,3.063567 -6.79265,4.075593 -0.75907,0.379534 -7.6061,0.813438 -8.15119,1.358531 -0.71601,0.716008 -0.64252,2.001052 -1.35853,2.717065 -0.58836,0.58836 -4.55733,2.13253 -5.43412,2.71706 -1.51806,1.01204 -6.02516,4.66663 -6.79266,5.43412 -0.716,0.71601 -0.64252,2.00105 -1.35853,2.71706 -1.01259,1.01259 -3.063,0.34594 -4.07559,1.35853 -0.13091,0.13091 -4.88892,5.70225 -5.43412,6.79266 -0.20252,0.40503 0.32021,1.03832 0,1.35853 -3.2996,3.2996 -1.9949,-0.40398 -4.07559,2.71706 -0.56169,0.84252 -0.64253,2.00105 -1.35853,2.71706 -0.71601,0.71601 -1.907,0.75098 -2.71707,1.35853 -1.54811,1.16109 -9.82421,10.13871 -10.86824,12.22678 -0.58093,1.16185 -0.77761,2.91374 -1.35853,4.07559 -1.14469,2.28937 -3.14065,2.62927 -4.0756,5.43412 -0.3819,1.14572 0.53642,3.00276 0,4.0756 -1.9164,3.8328 -3.06493,8.18413 -4.07559,12.22677 -0.67852,2.7141 -2.95944,4.56035 -4.07559,6.79266 -1.40599,2.81197 -1.25807,6.59174 -2.71706,9.50971 -0.60755,1.21511 0.4296,2.78678 0,4.07559 -0.20252,0.60756 -1.15601,0.75098 -1.35853,1.35853 -0.91336,2.74007 0.56164,6.70151 0,9.50972 -0.49825,2.49125 -2.01973,4.70066 -2.71706,6.79265 -1.31518,3.94554 -0.32089,16.22738 -1.35853,20.37796 -0.15533,0.6213 -1.15602,0.75098 -1.35854,1.35854 -0.80741,2.42223 0.62022,5.6703 0,8.15118 -2.5017,10.00681 -2.71706,14.58843 -2.71706,24.45355 0,14.5272 -2.0889,31.04176 1.35853,44.83152 0.3295,1.31797 -0.60755,2.86048 0,4.07559 0.28641,0.57281 1.15602,0.75098 1.35853,1.35853 2.36144,7.08431 -1.84569,21.63354 1.35854,31.24621 0.47998,1.43994 -0.3361,23.09502 0,23.09502 0.89351,0 2.11002,-3.46855 2.71706,-4.07559 2.1189,-2.1189 0.3066,-1.97173 1.35853,-4.07559 1.01306,-2.02612 3.0394,-3.36175 4.07559,-5.43413 2.36675,-4.73349 4.07559,-13.24545 4.07559,-19.01943 0,-3.07703 1.74743,-6.6008 2.71706,-9.50971 1.7416,-5.2248 0,-42.78937 0,-50.26564 0,-15.50532 -2.27714,-35.72293 1.35853,-50.26564 0.85242,-3.40964 -0.85241,-7.4586 0,-10.86824 0.70168,-2.80669 1.79908,-5.39722 2.71707,-8.15119 1.70443,-5.1133 -0.5125,-16.96945 1.35853,-24.45355 0.21966,-0.87865 -0.40504,-1.90699 0,-2.71706 4.16558,-8.33116 7.90561,-15.52211 13.5853,-23.09503 2.18537,-2.91381 4.50838,-3.14984 6.79266,-5.43412 1.65467,-1.65467 0.63636,-3.03524 2.71706,-4.07559 3.346,-1.673 -1.22639,3.94345 4.07559,-1.35853 3.82527,-0.0843 0.34594,-3.06301 1.35853,-4.07559 2.44741,-2.44741 8.87818,-2.08552 10.86825,-4.0756 0.32021,-0.32021 -0.40504,-1.15601 0,-1.35853 0.81007,-0.40503 1.85785,0.28641 2.71706,0 1.21511,-0.40503 1.50196,-2.31202 2.71706,-2.71706 0.85921,-0.2864 1.85785,0.2864 2.71706,0 4.24041,-1.41347 -0.45284,-0.90569 1.35853,-2.71706 2.6123,-2.61229 6.6179,-3.50625 9.50972,-5.43412 0.37679,-0.2512 -0.32021,-1.03833 0,-1.35853 0.78954,-0.78955 4.29243,-0.78769 5.43412,-1.35853 2.02612,-1.01306 3.36175,-3.03941 5.43413,-4.0756 1.74479,-0.8724 5.04785,-0.48613 6.79265,-1.35853 1.46038,-0.73019 2.55962,-2.11067 4.07559,-2.71706 2.79164,-1.11666 11.73014,-0.55511 14.94384,-1.35853 0.6213,-0.15532 0.75098,-1.15601 1.35853,-1.35853 1.84669,-0.61556 6.45454,0.24238 8.15119,0 1.84835,-0.26405 3.58141,-1.12694 5.43412,-1.35853 3.08376,-0.38547 7.72616,0.62842 10.86824,0 0.99293,-0.19859 1.72414,-1.15995 2.71707,-1.35853 1.77619,-0.35524 3.81398,0.81007 5.43412,0 0.57281,-0.28641 0.72683,-1.25325 1.35853,-1.35853 6.03549,-1.00592 10.57178,0.55166 16.30237,-1.35853 0.85921,-0.28641 1.90699,0.40503 2.71706,0 10.26423,-5.132119 4.85967,-6.218204 12.22678,-13.585312"
   id="path820" /><path
   style="fill:#00ff00"
   d="m 554.28055,116.83365 c -6.07454,0 -4.15329,-1.28084 -6.79265,1.35853"
   id="path822" /><path
   style="fill:#00ff00"
   d="m 528.46846,131.77748 h 5.43413"
   id="path824" /><path
   style="fill:#00ff00"
   d="m 506.73197,493.14666 c -0.29753,9.43432 3.80716,17.95113 5.43413,27.17062 2.1475,12.16917 1.82637,22.57623 4.07559,35.3218 2.38093,13.49193 6.50882,26.25852 8.15118,39.39739 0.71209,5.69674 1.23248,26.31631 0,31.24621 -0.15532,0.6213 -1.25324,0.72683 -1.35853,1.35853 -1.78328,10.69967 0,23.01066 0,33.96327 0,6.34613 -1.23513,11.7332 -2.71706,17.6609 -0.62022,2.48088 0.80741,5.72895 0,8.15118 -0.94269,2.82807 -2.71706,4.84719 -2.71706,8.15119 0,1.81137 1.81137,5.43412 0,5.43412 -0.81161,0 -4.07559,-7.22238 -4.07559,-8.15118 0,-5.1151 -3.85477,-16.46078 -6.79266,-20.37797 -3.27582,-4.36776 -5.43412,-6.52131 -5.43412,-12.22677 0,-3.40083 -1.35853,-6.10889 -1.35853,-9.50972 0,-15.07393 -0.13566,-29.88964 1.35853,-44.83151 1.73613,-17.36127 0,-39.16484 0,-57.05829 0,-12.67962 0,-25.35924 0,-38.03887 0,-4.53539 1.09235,-10.57443 0,-14.94383 -0.61189,-2.44757 -2.71706,-4.57047 -2.71706,-6.79266"
   id="path826" /><path
   style="fill:#00ff00"
   d="m 646.66064,156.23104 c 1.81137,0.45284 4.11387,0.0383 5.43412,1.35853 1.72438,1.72437 1.70795,4.5726 2.71706,6.79265 3.38992,7.45781 9.00551,18.94238 13.58531,25.81209 0.71048,1.06572 2.14426,1.57144 2.71706,2.71706 1.67001,3.34001 1.24607,7.43593 2.71707,10.86824 0.64317,1.50074 2.32106,2.49159 2.71706,4.0756 0.54915,2.19661 -0.49118,4.58235 0,6.79265 0.43932,1.97695 2.13513,3.49435 2.71706,5.43412 0.79151,2.63837 0.6018,5.50263 1.35853,8.15119 0.17594,0.61577 1.20321,0.73723 1.35853,1.35853 0.32949,1.31797 -0.26643,2.74344 0,4.07559 0.19859,0.99293 1.11294,1.73471 1.35853,2.71706 0.54915,2.19662 -0.54915,4.59604 0,6.79266 0.15532,0.62129 1.15601,0.75097 1.35853,1.35853 1.46593,4.39778 0.0321,24.35713 -1.35853,28.52914 -0.98846,2.96538 0.96066,8.54906 -1.35853,10.86825 -1.81137,1.81137 -1.30359,-2.88188 -2.71706,1.35853 -0.2864,0.85921 0.2864,1.85785 0,2.71706 -0.98049,2.94145 -4.0401,5.36314 -5.43412,8.15119 -0.20252,0.40503 0,0.90568 0,1.35853 -0.45285,0.90568 -0.75098,1.90699 -1.35854,2.71706 -1.89447,2.52597 -4.81988,4.32669 -6.79265,6.79265 -2.74726,3.43408 -7.21341,14.52308 -13.58531,8.15119 -1.43201,-1.43202 -1.50195,-3.81398 -2.71706,-5.43413 -0.7685,-1.02467 -2.14425,-1.57145 -2.71706,-2.71706 -6.30284,-12.60568 -3.79363,-29.04178 -8.15118,-42.11445 -2.83207,-8.49621 -5.43413,-16.76755 -5.43413,-25.81209 0,-15.84952 0,-31.69905 0,-47.54857"
   id="path880" /><path
   style="fill:#00ff00"
   d="m 676.54832,240.45994 4.07559,12.22678"
   id="path882" /><path
   style="fill:#00ff00"
   d="M 664.32154,266.27203 648.01917,152.15544"
   id="path884" /><path
   style="fill:#00ff00"
   d="m 634.43386,154.87251 c 3.30164,-4.26653 6.25866,-10.73475 12.22678,-12.22678 6.04125,-1.51031 18.62472,-0.78942 21.73649,5.43412 0.40504,0.81007 -0.40503,1.90699 0,2.71706 0.57281,1.14562 2.40642,1.47447 2.71706,2.71707 1.5672,6.26878 -2.03743,14.26567 0,20.37796 1.51927,4.5578 1.19648,9.02354 2.71707,13.5853 0.67772,2.03318 -0.52082,4.70939 0,6.79266 0.56396,2.25587 2.10226,3.58974 2.71706,5.43412 0.67926,2.0378 -0.33964,2.37743 0,4.07559 1.48362,7.41809 6.25711,31.49431 4.07559,38.03886 -1.42995,4.28984 -5.7118,2.71707 -9.50972,2.71707"
   id="path886" /><path
   style="fill:#00ff00"
   d="m 654.81182,149.43838 c -2.26421,-1.81137 -4.19916,-4.13737 -6.79265,-5.43412 -1.21511,-0.60755 -2.75762,0.32949 -4.07559,0 -0.6213,-0.15532 -0.73724,-1.20321 -1.35853,-1.35853 -6.13076,-1.53269 -37.64735,-0.39151 -40.75592,2.71706 -0.83542,0.83541 -9.1982,14.00927 -9.50972,14.94384 -0.2864,0.85921 0.40504,1.90699 0,2.71706 -0.57281,1.14561 -2.00658,1.65134 -2.71706,2.71706 -1.51752,2.27628 -1.83856,5.51567 -2.71706,8.15119 -0.58315,1.74944 -3.49245,3.68467 -4.0756,5.43412 -0.2864,0.85921 0.28641,1.85785 0,2.71706 -0.7034,2.11021 -3.2786,4.40169 -4.07559,6.79266 -0.4296,1.28881 0.32949,2.75762 0,4.07559 -0.80608,3.22431 -1.91098,6.2854 -2.71706,9.50971 -1.28901,5.15604 0,12.29002 0,17.6609 0,15.84953 0,31.69905 0,47.54858"
   id="path888" /><path
   style="fill:#00ff00"
   d="m 585.52676,247.2526 c -1.81138,-1.35853 -3.40895,-3.06301 -5.43413,-4.07559 -0.49355,-0.24678 -24.15276,-0.1504 -24.45355,0 -0.57281,0.2864 -0.90569,0.90568 -1.35853,1.35853 -0.90569,0 -1.90699,-0.40504 -2.71706,0 -0.40504,0.20251 0.32021,1.03832 0,1.35853 -0.32021,0.32021 -0.9535,-0.20252 -1.35853,0 -0.57281,0.2864 -0.75098,1.15601 -1.35853,1.35853 -0.85921,0.2864 -1.90699,-0.40504 -2.71707,0 -0.81007,0.40503 0.40504,1.90699 0,2.71706 -2.48343,4.96687 -1.75889,13.18494 2.71707,17.6609 2.59195,2.59195 10.74627,5.72801 13.5853,6.79265 19.47503,7.30314 36.78587,5.43413 58.41683,5.43413 9.44813,0 26.89151,1.68605 35.3218,0 0.99292,-0.19859 1.75643,-1.03833 2.71706,-1.35853 2.39606,-0.79869 5.72328,0.60697 8.15118,0 1.24259,-0.31065 1.50196,-2.31203 2.71706,-2.71707 2.57763,-0.85921 5.43413,0 8.15119,0 13.76234,0 18.89168,-4.56323 25.81208,-14.94383 0.50239,-0.75358 -0.40503,-1.90699 0,-2.71707 0.77604,-1.55208 3.67831,-3.84498 4.07559,-5.43412 0.43933,-1.75729 -0.5728,-3.7157 0,-5.43412 0.54907,-1.64719 2.38726,-4.73522 1.35854,-6.79266 -2.65827,-5.31654 -16.65641,-2.71706 -21.7365,-2.71706 -10.10661,0 -20.18078,0.29034 -29.88767,2.71706 -6.40419,1.60105 -23.45084,0 -31.24621,0 -7.64648,0 -21.97112,-1.6395 -28.52915,0 -5.4511,1.36278 -10.43014,1.35853 -16.30237,1.35853"
   id="path890" /><path
   style="fill:#00ff00"
   d="m 611.33884,319.25473 31.24621,-21.73649"
   id="path892" /><path
   style="fill:#00ff00"
   d="m 667.0386,285.29146 c 3.89244,5.32066 2.86809,11.62337 4.07559,17.6609 0.5504,2.75197 2.03381,5.41816 2.71707,8.15118 0.73433,2.93733 -0.9535,6.64923 0,9.50972 0.20251,0.60755 1.07212,0.78572 1.35853,1.35853 0.65761,1.31524 -0.069,2.57912 1.35853,5.43412 0.91919,1.83839 -0.65859,4.8169 0,6.79266 0.32021,0.96062 1.03832,1.75643 1.35853,2.71706 1.22268,3.66803 -1.22268,8.55874 0,12.22677 1.63725,4.91176 1.5083,10.1088 2.71706,14.94384 0.15532,0.6213 1.15601,0.75098 1.35853,1.35853 0.61296,1.83887 0.43557,7.76743 0,9.50972 -0.49118,1.96471 -2.38412,3.4365 -2.71706,5.43412 -1.40281,8.41683 0,18.62366 0,27.17062 0,36.22748 0,72.45497 0,108.68246 0,9.67691 0.18803,10.72251 -1.35853,23.09502 -2.27396,18.19166 -0.85643,-12.96566 -2.71706,14.94384 -0.24099,3.61472 0.55086,7.28762 0,10.86824 -1.24335,8.08174 -2.39455,4.4666 -4.0756,9.50972 -1.49507,4.48521 -3.04998,8.97007 -4.07559,13.58531 -1.56518,7.04333 -2.32348,12.79815 -5.43412,19.01943 -3.36232,6.72464 -2.93955,14.34267 -12.22678,8.15118"
   id="path894" /><path
   style="fill:#00ff00"
   d="m 669.75566,266.27203 c 10.43939,13.82228 13.27955,28.70977 16.30237,44.83151 1.29555,6.90962 4.17656,13.46134 5.43413,20.37796 1.30935,7.20143 0,15.95843 0,23.09503 0,20.37796 0,40.75592 0,61.13388 0,11.24013 0.79953,22.76978 0,33.96327 -1.00182,14.02535 -1.55181,28.13134 -2.71707,42.11445 -1.2867,15.44041 -4.33361,30.78294 -5.43412,46.19005 -0.93957,13.15392 0.10015,26.26926 -1.35853,39.39739 -0.20619,1.8557 -1.12694,3.58142 -1.35853,5.43412 -0.22467,1.79739 0.43932,3.67684 0,5.43413 -0.49118,1.96471 -2.31989,3.44827 -2.71706,5.43412 -1.06572,5.3286 0,10.86825 0,16.30237 0,8.35409 -0.33202,16.24143 -1.35853,24.45355 -0.41756,3.34042 0.16317,7.82484 -1.35853,10.86825 -0.80027,1.60053 -23.07718,2.04672 -24.45356,1.35853 -0.35518,-0.17759 -1.35853,-4.42892 -1.35853,-5.43412"
   id="path898" /><path
   style="fill:#00ff00"
   d="m 626.28268,330.12297 20.37796,-67.92653"
   id="path900" /><path
   style="fill:#00ff00"
   d="m 551.56349,653.45329 c -4.90887,1.94043 -6.79266,4.47839 -6.79266,9.50972 0,5.5847 -3.23426,7.11679 0,13.58531 0.93695,1.8739 -1.64525,1.21517 1.35853,2.71706 0.81008,0.40503 2.07665,0.64042 2.71707,0 1.51111,-1.51111 -0.85351,-5.7826 -1.35853,-6.79266 -0.17202,-0.34403 -1.5089,-16.18959 -1.35854,-16.30236 1.62015,-1.21511 3.62275,-1.81138 5.43413,-2.71707 z"
   id="path902" /><path
   style="fill:#00ff00"
   d="m 539.33671,717.30424 c 0.45284,1.81137 -0.45284,5.88697 1.35853,5.43412 1.81138,-0.45284 -3.20025,-5.74107 -1.35853,-5.43412 3.84251,0.64042 6.20633,4.72804 9.50972,6.79265 1.65003,1.03127 5.01838,-0.88713 6.79265,0 2.0807,1.04035 1.06239,2.42093 2.71706,4.0756 1.26112,1.26112 7.79432,-1.35854 8.15119,-1.35854 0.64041,0 -1.07213,0.78573 -1.35854,1.35854 -0.20251,0.40503 0.32021,1.03832 0,1.35853 -1.5898,1.5898 -5.71266,1.35853 -8.15118,1.35853 -4.9413,0 -13.93516,0.65882 -16.30237,-4.0756 -0.40503,-0.81007 0.1489,-1.82369 0,-2.71706 -0.37961,-2.27764 -0.90569,-4.52843 -1.35853,-6.79265 z"
   id="path904" /><path
   style="fill:#00ff00"
   d="m 577.37557,743.11632 c 1.35853,1.81138 2.26422,6.79266 4.07559,5.43413 1.81138,-1.35853 -6.33981,-5.43413 -4.07559,-5.43413 3.65094,0 6.24422,3.80138 9.50972,5.43413 1.30386,0.65193 4.12947,-0.43489 5.43412,0 1.43724,0.47908 2.3884,7.12131 1.35853,8.15118 -0.35961,0.35961 -3.5162,0 -4.07559,0 -7.84692,0 -10.77086,-6.30574 -12.22678,-13.58531 z"
   id="path906" /><path
   style="fill:#cccccc"
   d="m 569.22439,773.004 c 5.80952,0.56292 10.59513,-1.35853 16.30237,-1.35853 2.32918,0 7.45679,-1.02646 9.50971,0 0.57281,0.2864 0.75098,1.15601 1.35853,1.35853 0.85921,0.2864 1.90699,-0.40503 2.71706,0 0.40504,0.20252 -0.3202,1.03832 0,1.35853 0.96063,0.96063 2.78678,-0.4296 4.0756,0 1.69235,0.56412 4.14619,4.14619 5.43412,5.43412 2.1189,2.11891 0.3066,1.97173 1.35853,4.0756 1.01493,2.02986 3.38286,3.12731 -1.35853,4.07559 -3.34025,0.66805 -15.71813,0.82533 -19.01943,0 -3.24466,-0.81117 -6.34059,-3.01922 -9.50972,-4.07559 -2.42168,-0.80723 -9.05946,-0.45414 -10.86824,-1.35853 -1.40297,-0.70149 -4.6915,-2.59035 -5.43413,-4.0756 -1.72895,-3.4579 3.77881,-4.60646 5.43413,-5.43412 z"
   id="path908" /><path
   style="fill:#cccccc"
   d="m 634.43386,194.2699 c 5.65234,-0.90932 11.34549,-1.47784 16.30237,-2.71706 11.2642,-2.81605 -0.96867,0.7265 5.43413,-4.0756 0.53511,-0.40133 7.0394,-2.34647 8.15118,-2.71706 3.59986,-1.19995 7.2226,-2.86037 10.86825,-4.07559 2.03779,-0.67926 1.35853,1.35853 4.07559,0 0.40503,-0.20252 -0.32021,-1.03832 0,-1.35853 0.16144,-0.16145 14.84947,0 16.30237,0 0.45284,0 -0.9535,-0.20252 -1.35853,0 -1.14562,0.57281 -1.65135,2.00658 -2.71706,2.71706 -4.77624,3.18416 -14.50119,1.13721 -17.6609,2.71706 -1.84647,0.92323 -3.58766,3.15236 -5.43413,4.0756 -2.56718,1.28359 -5.59487,0.50642 -8.15118,1.35853 -2.13636,0.71211 -4.62393,3.35268 -6.79266,4.07559 -1.19214,0.39738 -10.70309,1.19338 -10.86824,1.35853 -0.32021,0.32021 0.32021,1.03832 0,1.35853 -2.02518,2.02518 -5.29891,-2.97636 -8.15119,-2.71706 -3.02529,0.27502 -5.35903,2.87896 -8.15118,4.07559 -1.19727,0.51312 -9.71303,0.57761 -10.86825,0 -6.25997,-3.12999 -13.43885,-1.76256 -20.37796,-4.07559 -9.8404,-3.28014 2.14187,0.39167 -4.07559,-2.71706 -0.81007,-0.40504 -1.90699,0.40503 -2.71706,0 -2.01394,-1.00697 -4.7694,-1.70543 -6.79266,-2.71706 -0.90568,-0.45285 -0.45284,-2.26422 -1.35853,-2.71707 -0.81007,-0.40503 -1.85785,0.28641 -2.71706,0 -0.60755,-0.20251 -0.90569,-0.90568 -1.35853,-1.35853 -0.45284,-0.45284 -0.75098,-1.15601 -1.35853,-1.35853 -0.85921,-0.2864 -2.07664,0.64042 -2.71706,0 -2.18325,-2.18325 7.41141,-1.35853 13.58531,-1.35853 4.24594,0 6.9868,0.0647 10.86824,1.35853 1.99799,0.666 9.4463,-1.42195 10.86825,0 0.32021,0.32021 -0.32021,1.03832 0,1.35853 0.2587,0.2587 7.11656,1.01366 8.15118,1.35853 10.29455,3.43152 -0.49055,-0.49055 2.71706,2.71707 1.78837,1.78836 7.28187,1.60313 9.50972,2.71706 0.90569,0.45284 0.37617,2.47147 1.35853,2.71706 1.75729,0.43932 3.62275,0 5.43412,0 z"
   id="path1038" /><ellipse
   style="fill:#ffffff"
   id="path1196"
   cx="662.28375"
   cy="216.00639"
   rx="22.415758"
   ry="21.736492" /><ellipse
   style="fill:#ffffff"
   id="path1196-5"
   cx="601.82916"
   cy="217.36493"
   rx="22.415758"
   ry="21.736492" /><circle
   id="path1595"
   style="fill:#ffffff;stroke:#000000"
   cx="676.54834"
   cy="216.00639"
   r="0.68392432" /><circle
   id="path1597"
   style="fill:#ffffff;stroke:#000000"
   cx="616.77295"
   cy="217.36491"
   r="0.68392432" /><path
   style="fill:#000000"
   d="m 660.24595,243.17701 c 4.44389,-1.96182 11.96035,2.17101 16.30237,0 0.40503,-0.20252 -0.32021,-1.03833 0,-1.35854 0.71601,-0.716 1.81137,-0.90568 2.71706,-1.35853 3.15308,-1.57654 5.43412,0.72394 5.43412,-5.43412"
   id="path1664" /><path
   style="fill:#000000"
   d="m 618.13149,241.81847 c -5.88765,0.10877 -35.36484,4.03255 -39.39739,0"
   id="path1729" /><path
   style="fill:#000000"
   d="m 624.92415,230.95023 c 2.8862,3.01608 -1.88405,11.17574 0,14.94384 2.82694,5.65388 -0.0938,-1.45232 2.71706,1.35853 2.81085,2.81085 -4.29535,-0.10988 1.35853,2.71706 0.40504,0.20252 1.03832,-0.32021 1.35853,0 0.32021,0.32021 -0.40503,1.15601 0,1.35853 0.67145,0.33573 7.24007,0.45556 8.15119,0 2.97888,-1.48944 0.2695,-4.61461 1.35853,-6.79265 0.91765,-1.83531 1.83571,-3.67142 2.71706,-5.43413 0.67246,-1.34492 4.87397,-5.43412 2.71706,-5.43412 -0.15983,0 0.19978,3.87581 0,4.07559 -0.32021,0.32021 -1.03832,-0.32021 -1.35853,0 -1.33109,1.33109 -3.08912,7.53678 -4.07559,9.50972 -2.82694,5.65388 0.0938,-1.45232 -2.71706,1.35853 -0.32021,0.32021 0.3202,1.03832 0,1.35853 -1.28084,1.28083 -3.62275,0 -5.43413,0 -9.42412,0 -6.79265,-3.10024 -6.79265,-10.86825 0,-2.71706 0,-5.43412 0,-8.15118 z"
   id="path1731" /><path
   style="fill:#000000"
   d="m 562.43173,239.10141 c -10.82303,-3.83982 -6.10455,1.35265 -12.22677,5.43413 -1.67086,1.1139 -6.52169,3.53366 -8.15119,6.79265 -2.75577,5.51155 -2.82509,18.28615 4.07559,21.73649 1.76271,0.88135 3.59883,1.79941 5.43413,2.71706 0.81007,0.40504 1.90699,-0.40503 2.71706,0 1.15123,0.57562 6.54757,2.96215 8.15118,1.35853 1.16118,-1.16117 -5.61199,-2.71706 -6.79265,-2.71706 -3.67846,0 -1.25481,0.10372 -4.07559,-2.71706 -0.32021,-0.32021 -0.9535,0.20252 -1.35853,0 -1.82956,-0.91478 -3.28722,-3.85737 -4.0756,-5.43412 -0.97259,-1.94519 0,-7.46254 0,-9.50972 0,-2.81389 -1.18692,-8.4944 0,-10.86824 2.79394,-5.58787 9.96176,-6.79266 16.30237,-6.79266 z"
   id="path1733" /><path
   style="fill:#000000"
   d="m 701.00187,239.10141 c 0.5388,5.80252 7.4168,-2.09291 9.50972,0 2.64064,2.64065 1.60676,15.80591 0,19.01943 -1.01111,2.02221 -4.22641,3.62256 -5.43413,5.43413 -0.25119,0.37679 0.40504,1.15601 0,1.35853 -0.81007,0.40503 -2.07664,-0.64042 -2.71706,0 -0.64042,0.64042 0.50239,1.96348 0,2.71706 -0.87863,1.31795 -4.23633,2.11817 -5.43412,2.71706 -1.14562,0.57281 -1.65134,2.00658 -2.71706,2.71706 -1.40211,0.93474 -9.43133,2.79545 -8.15119,4.07559 1.34869,1.3487 7.44856,-2.71706 8.15119,-2.71706 5.41132,0 3.76522,-2.40669 5.43412,-4.07559 0.71601,-0.71601 1.87454,-0.79685 2.71706,-1.35853 1.82846,-1.21898 2.80115,-4.88099 4.07559,-6.79265 0.78229,-1.17343 3.2796,-4.63813 4.0756,-5.43413 0.3202,-0.32021 1.15601,0.40504 1.35853,0 0.40503,-0.81007 -0.50239,-1.96348 0,-2.71706 0.56168,-0.84252 2.00105,-0.64252 2.71706,-1.35853 1.474,-1.474 2.08587,-6.25762 2.71706,-8.15118 0.43418,-1.30254 4.99601,-4.51371 2.71706,-6.79266 -0.32021,-0.32021 -1.03832,0.32021 -1.35853,0 -0.32021,-0.32021 0.32021,-1.03832 0,-1.35853 -0.40589,-0.40589 -5.25922,0.0437 -5.43412,0 -2.193,-0.54825 -2.89776,-2.44554 -5.43413,-1.35853 -2.42701,1.04015 -4.52843,2.71706 -6.79265,4.07559 z"
   id="path1735" /><path
   style="fill:#000000"
   d="m 717.30424,248.61113 c 2.08678,4.65093 -2.89472,4.43091 -4.07559,6.79265 -2.72135,5.44271 -8.91666,9.68212 -10.86825,13.58531 -0.20252,0.40504 0.20252,0.9535 0,1.35853 -0.41287,0.82574 -5.43412,2.86259 -5.43412,2.71706 0,-1.09128 3.56336,-3.05112 4.07559,-4.07559 0.54341,-1.08682 -0.54341,-2.98877 0,-4.07559 0.81512,-1.63024 3.26047,-2.44536 4.07559,-4.07559 0.40504,-0.81008 -0.64041,-2.07665 0,-2.71707 5.30199,-5.30198 0.7296,0.31447 4.0756,-1.35853 3.43684,-1.71842 5.43412,-5.43412 8.15118,-8.15118 z"
   id="path1737" /><path
   style="fill:#000000"
   d="m 565.14879,251.32819 c 4.07793,2.6696 7.93738,2.64579 12.22678,4.07559 5.09022,1.69674 14.81454,0 20.37796,0 14.94384,0 29.88768,0 44.83152,0 4.41719,0 17.22333,1.57732 20.37796,0 0.40504,-0.20252 -0.32021,-1.03832 0,-1.35853 0.46911,-0.4691 3.38131,0.13886 4.07559,0 1.83087,-0.36617 3.58142,-1.12694 5.43412,-1.35853 2.69608,-0.33701 5.72098,1.21511 8.15119,0 2.86222,-1.43111 6.48688,-1.20564 9.50971,-2.71706 0.57281,-0.2864 0.75098,-1.15601 1.35854,-1.35853 0.85921,-0.2864 1.90699,0.40503 2.71706,0 0.40503,-0.20252 -0.32021,-1.03832 0,-1.35853 0.32021,-0.32021 1.03832,0.32021 1.35853,0 1.81137,-1.81138 -2.88188,-1.30359 1.35853,-2.71706 0.85921,-0.28641 1.85785,0.2864 2.71706,0 0.31351,-0.10451 4.07559,-5.25996 4.07559,-1.35853 0,2.98031 -8.6601,10.75467 -10.86824,12.22677 -2.22824,1.48549 -0.48883,2.59011 -2.71707,4.07559 -1.19151,0.79434 -3.063,0.34595 -4.07559,1.35854 -0.71601,0.716 -0.64252,2.00105 -1.35853,2.71706 -0.61175,0.61175 -9.77843,6.24775 -10.86824,6.79265 -0.81008,0.40504 -1.90699,-0.40503 -2.71707,0 -5.64026,2.82013 -12.1285,-0.4856 -17.6609,1.35853 -2.68717,0.89573 -3.01345,2.0872 -6.79265,2.71706 -9.99021,1.66504 -23.68731,0 -33.96327,0 -6.00518,0 -19.24268,1.73696 -24.45355,0 -0.60756,-0.20251 -0.78573,-1.07212 -1.35853,-1.35853 -1.62015,-0.81007 -3.71571,0.57281 -5.43413,0 -0.4296,-0.1432 0.32021,-1.03832 0,-1.35853 -0.45199,-0.452 -5.15996,0.0914 -5.43412,0 -0.60755,-0.20252 -0.78572,-1.07213 -1.35853,-1.35853 -0.60716,-0.30358 -5.33324,-0.87206 -6.79265,-1.35853 -5.85219,-1.95073 -12.02071,-7.62965 -17.6609,-9.50972 -0.85921,-0.2864 -1.90699,0.40504 -2.71706,0 -0.81008,-0.40503 0,-1.81137 0,-2.71706 0,-1.02046 -0.6216,-9.19892 0,-9.50971 1.45486,-0.72743 11.22238,-0.60264 12.22677,0 1.94155,1.16493 3.30623,3.30181 5.43412,4.07559 2.20891,0.80324 17.04164,2.71706 20.37797,2.71706 2.67701,0 2.6251,0.42219 5.43412,1.35853 2.43572,0.81191 6.97694,0 9.50971,0 0.90569,0 -1.81137,0 -2.71706,0"
   id="path1739" /><path
   style="fill:#008000"
   d="m 688.77509,249.96966 c -0.90568,1.81137 -4.52843,4.52844 -2.71706,5.43412 1.81138,0.90569 4.68178,-5.9253 2.71706,-5.43412 -25.86307,6.46577 -1.47007,5.48989 -9.50971,9.50971 -4.07033,2.03517 -2.87096,-5.43412 -4.07559,-5.43412 -0.45285,0 0.40503,1.15601 0,1.35853 -0.81008,0.40504 -1.90699,-0.40503 -2.71707,0 -0.40503,0.20252 0.32021,1.03832 0,1.35853 -0.7874,0.78741 -4.64672,1.92966 -5.43412,2.71706 -1.45176,1.45177 1.93125,2.71707 -1.35853,2.71707 -1.03462,0 -6.0154,0.77725 -6.79265,0 -0.32021,-0.32021 0,-0.90569 0,-1.35853 -0.90569,0 -1.90699,0.40503 -2.71706,0 -0.22271,-0.11136 0.17816,-4.0756 0,-4.0756 -0.43179,0 0.9714,2.91063 -1.35854,4.0756 -1.17748,0.58874 -10.76043,0.73316 -12.22677,0 -3.14206,-1.57103 -0.232,-8.15119 -1.35853,-8.15119 -0.45285,0 0.20252,0.9535 0,1.35853 -1.22789,2.45578 -7.13375,9.68027 -9.50972,10.86825 -2.94788,1.47394 -10.76831,0.19986 -12.22677,-2.71706 -0.12464,-0.24928 0.0997,-4.0756 0,-4.0756 -0.15983,0 0.19978,3.87581 0,4.0756 -0.32021,0.3202 -1.03833,-0.32021 -1.35854,0 -1.54323,1.54323 -0.20138,3.49702 -4.07559,5.43412 -1.97864,0.98932 -9.94239,0.49317 -10.86824,-1.35853 -0.66506,-1.33012 -1.99973,-2.64093 -2.71707,-4.07559 -0.56554,-1.1311 0.86174,-4.57239 0,-5.43413 -0.3202,-0.32021 -0.95349,-0.20251 -1.35853,0 -0.90568,0.45285 -0.45284,2.26422 -1.35853,2.71706 -0.81007,0.40504 -1.90699,-0.40503 -2.71706,0 -0.90569,0.45285 -0.54846,2.10951 -1.35853,2.71707 -2.24877,1.68658 -13.34758,8.38891 -16.30237,5.43412 -0.32021,-0.32021 0.20252,-0.9535 0,-1.35853 -2.58567,-5.17135 -0.8853,-10.86825 -1.35853,-10.86825 -0.45284,0 0.32021,1.03832 0,1.35853 -0.46239,0.46239 -7.4756,0.3378 -8.15118,0 -0.90569,-0.45284 -0.34595,-2.71706 -1.35853,-2.71706 -0.45285,0 0.3202,1.03832 0,1.35853 -0.32021,0.32021 -0.9535,-0.20252 -1.35854,0 -0.5728,0.28641 -0.75097,1.15602 -1.35853,1.35853 -1.2818,0.42727 -8.45707,0.52632 -9.50971,0 -3.3927,-1.69635 0.0359,-9.50971 -1.35853,-9.50971 -0.0997,0 0.12463,3.82632 0,4.07559 -0.72005,1.4401 -2.39779,3.35562 -1.35853,5.43412 1.75343,3.50687 7.67175,2.71706 10.86824,2.71706 3.03727,0 -0.24251,-2.71706 2.71706,-2.71706 0.22964,0 -0.29969,5.13443 0,5.43413 1.13211,1.13211 5.66055,-1.13211 6.79266,0 0.90569,0.90568 -0.90569,4.52843 0,5.43412 0.27538,0.27538 6.51727,0.27538 6.79265,0 0.32021,-0.32021 -0.40503,-1.15601 0,-1.35853 5.20856,-2.60428 2.84496,3.46027 4.07559,4.07559 2.37786,1.18893 8.92789,-1.64944 9.50972,-1.35853 2.13206,1.06603 0.28953,5.28936 2.71706,4.07559 1.73498,-0.86749 8.99486,-5.01228 10.86825,-4.07559 2.10039,1.0502 0.36774,4.8587 2.71706,4.07559 1.31257,-0.43752 9.02658,-4.55873 9.50971,-4.07559 0.45285,0.45284 0.90569,3.62275 1.35854,4.07559 2.47155,2.47156 12.55728,-1.92154 14.94383,-2.71706 0.49208,-0.16403 5.3962,1.33957 5.43413,1.35853 0.81007,0.40504 -0.64042,2.07665 0,2.71706 2.44699,2.44699 7.96453,-4.66153 9.50971,-5.43412 2.65328,-1.32664 0.18215,6.02231 4.07559,4.07559 2.17365,-1.08682 3.26048,-4.3473 5.43413,-5.43412 2.48182,-1.24091 5.6047,0.93514 6.79265,2.71706 0.25119,0.37679 -0.40503,1.15601 0,1.35853 0.15436,0.0772 5.22438,1.56827 5.43412,1.35853 0.89063,-0.89062 0.67791,-4.7535 1.35853,-5.43412 0.32021,-0.32021 1.03833,-0.32021 1.35854,0 0.3202,0.32021 -0.45285,1.35853 0,1.35853 0.76606,0 5.28835,-5.33694 5.43412,-5.43412 1.13036,-0.75358 2.86048,0.60755 4.07559,0 0.81007,-0.40504 -0.40503,-1.90699 0,-2.71706 0.2864,-0.57281 0.90569,-0.90569 1.35853,-1.35854 0.45285,-0.90568 0.95965,-1.78634 1.35853,-2.71706 0.96063,-2.24146 1.62647,-8.97383 2.71706,-6.79265 5.23288,10.46576 -6.07559,11.74873 -10.86824,14.94384 -3.0552,2.03679 -3.7029,2.53071 -6.79266,4.07559 -1.14561,0.57281 -1.57144,2.14425 -2.71706,2.71706 -4.21313,2.10657 -9.44861,3.36578 -13.58531,5.43412 -1.81137,0.90569 -4.98127,-0.90568 -6.79265,0 -0.57281,0.28641 -0.75098,1.15602 -1.35853,1.35854 -1.78565,0.59521 -28.5042,2.05027 -29.88768,1.35853 -2.98397,-1.49199 -6.23821,-1.62656 -9.50971,-2.71707 -2.62471,-0.8749 -3.17146,-1.99282 -6.79266,-2.71706 -2.67335,-0.53467 -7.11878,-0.16306 -9.50971,-1.35853 -0.57281,-0.2864 -0.75098,-1.15601 -1.35853,-1.35853 -2.5842,-0.8614 -7.17299,-0.19016 -9.50972,-1.35853 -0.5728,-0.2864 -0.75097,-1.15601 -1.35853,-1.35853 -6.08377,-2.02792 -13.27334,1.51451 -19.01943,-1.35853 -2.5326,-1.2663 -5.00806,0.85211 -6.79265,-2.71706 -1.19785,-2.39569 -8.6851,-14.40992 -5.43412,-17.6609 0.45734,-0.45735 11.76599,-0.46079 12.22677,0 0.32021,0.32021 -0.32021,1.03832 0,1.35853 2.30313,2.30313 11.67723,2.71706 14.94384,2.71706 3.06924,0 -0.60755,-0.20252 4.07559,1.35853 2.18094,0.72698 39.31752,0.47947 40.75593,0 0.60755,-0.20252 0.78572,-1.07213 1.35853,-1.35853 3.13073,-1.56537 8.96054,1.08875 12.22677,0 2.47355,-0.82452 4.31911,-1.89255 6.79266,-2.71706 2.35362,-0.78454 5.80691,0.58607 8.15118,0 0.6213,-0.15533 0.75098,-1.15601 1.35853,-1.35853 1.82914,-0.60971 32.39354,-2.30037 33.96327,-1.35853 1.94155,1.16493 3.62275,2.71706 5.43412,4.07559 z"
   id="path1741" /><path
   style="fill:#008000"
   id="path1981"
   d="m 542.43348,714.93349 c 5.21012,5.19746 11.71159,9.46426 18.82045,11.51261 1.83454,0.45452 3.65669,0.60469 5.52504,0.38416 0,0 -11.98916,-8.61315 -11.98916,-8.61315 v 0 c -1.76587,-0.0319 -3.51009,-0.24099 -5.18206,-0.85161 -5.30265,-2.24418 -1.41759,-0.66145 10.23699,6.19177 0.37679,0.22157 -0.77688,-0.40414 -1.14229,-0.64401 -0.95052,-0.62395 -1.68989,-1.44853 -2.46805,-2.26325 0,0 -13.80092,-5.71652 -13.80092,-5.71652 z" /><path
   style="fill:#008000"
   id="path1983"
   d="m 566.4955,124.20464 c 1.30538,-1.60378 3.26365,-2.42932 5.13964,-3.16468 0,0 -12.22651,-8.16581 -12.22651,-8.16581 v 0 c -2.12942,0.93696 -4.28852,1.95385 -5.82477,3.76466 0,0 12.91164,7.56583 12.91164,7.56583 z" /><path
   style="fill:#ff8080"
   id="path1985"
   d="m 554.37647,115.15751 c -3.36631,-0.26335 -5.9346,0.97068 -8.46451,3.08882 -2.6163,2.68203 -2.10818,4.49981 0.38302,6.92533 0,0 13.64698,5.4833 13.64698,5.4833 v 0 c -2.14778,-1.40218 -4.03436,-2.23982 -1.59358,-4.60373 2.48153,-1.91561 5.00905,-2.45646 8.12152,-2.10733 0,0 -12.09343,-8.78639 -12.09343,-8.78639 z" /><path
   style="fill:#ff8080"
   d="m 760.77723,288.00852 c 6.05163,-0.51194 15.53818,-3.42463 21.73649,-1.35853 2.22255,0.74085 4.59249,2.97551 6.79265,4.07559 0.80216,0.40108 4.98347,2.26641 5.43413,2.71707 0.92868,0.92868 3.537,7.61259 4.07559,8.15118 0.32021,0.32021 1.03832,-0.32021 1.35853,0 0.32021,0.32021 -0.20252,0.95349 0,1.35853 0.57281,1.14561 2.14425,1.57145 2.71706,2.71706 0.40504,0.81007 -0.64042,2.07665 0,2.71706 1.15453,1.15453 2.92106,1.56254 4.07559,2.71707 0.71601,0.716 0.45285,2.26421 1.35853,2.71706 0.81008,0.40503 1.90699,-0.40504 2.71707,0 0.40503,0.20251 -0.20252,0.95349 0,1.35853 0.5728,1.14561 2.14425,1.57145 2.71706,2.71706 0.41167,0.82335 0.78925,3.50631 1.35853,4.07559 0.32021,0.32021 1.03832,-0.32021 1.35853,0 0.29386,0.29386 0.21441,5.00531 0,5.43412 -4.16646,8.33292 -1.21852,1.28853 -6.79265,4.0756 -0.56392,0.28196 0.4742,3.60138 0,4.07559 -2.81085,2.81085 0.10987,-4.29535 -2.71707,1.35853 -0.20251,0.40504 0.32021,1.03832 0,1.35853 -1.98342,1.98343 -11.22633,8.72339 -13.5853,9.50972 -0.85921,0.2864 -1.81138,0 -2.71707,0 -0.90568,0.45284 -1.77689,0.98246 -2.71706,1.35853 -3.23005,1.29202 -30.81553,4.93694 -32.60474,1.35853 -0.55387,-1.10776 -0.55387,-42.36523 0,-43.47299 0.57281,-1.14561 2.14426,-1.57145 2.71707,-2.71706 0.94737,-1.89474 0.41116,-4.89791 1.35853,-6.79265 0.5728,-1.14562 2.71706,-1.43623 2.71706,-2.71706 0,-2.30906 -0.90569,-4.52844 -1.35853,-6.79266 z"
   id="path607" /><path
   style="fill:#ffaaaa"
   d="m 767.56988,302.95236 c 0.23054,-0.27827 9.19448,5.11889 9.50972,5.43412 0.25032,0.25033 1.1082,3.82527 1.35853,4.0756 0.71601,0.716 2.00105,0.64252 2.71706,1.35853 0.21172,0.21172 0.21172,5.2224 0,5.43412 -0.32021,0.32021 -1.03832,-0.32021 -1.35853,0 -0.45284,0.45284 -0.90569,3.62275 -1.35853,4.07559 -2.11529,2.11529 -3.47533,0.75827 -5.43413,2.71706 -0.45284,0.45285 -0.90568,0.90569 -1.35853,1.35853 0,0.45285 0.32021,1.03833 0,1.35853 -5.30198,5.30199 -0.72959,-0.31446 -4.07559,1.35854 -0.57281,0.2864 -0.71811,1.35853 -1.35853,1.35853 -1.98202,0 5.6171,-5.43413 10.86825,-5.43413 2.71741,0 16.6911,-3.8819 19.01943,-5.43412 1.06572,-0.71048 1.65134,-2.00658 2.71706,-2.71706 2.24964,-1.49976 5.21294,-1.35853 8.15118,-1.35853 0.45285,0 1.81138,0 1.35853,0 -1.38651,0 -16.18857,0.11379 -16.30236,0 -0.32021,-0.32021 0.3202,-1.03832 0,-1.35853 -0.83465,-0.83464 -3.16582,-0.89751 -4.0756,-2.71706 -1.39223,-2.78448 -0.0241,-6.84078 -1.35853,-9.50972 -0.24128,-0.48256 -5.24474,-6.60328 -5.43412,-6.79265 -0.96063,-0.96063 -2.78678,0.4296 -4.07559,0 -0.60756,-0.20252 -0.78573,-1.07213 -1.35853,-1.35853 -1.64717,-0.82359 -12.89236,-1.02574 -14.94384,0 -0.40504,0.20251 0,0.90568 0,1.35853"
   id="path609" /><path
   style="fill:#ffd5d5"
   d="m 811.04287,336.91563 c 4.98128,0 9.96256,0 14.94383,0 4.40292,0 22.41765,-1.69722 25.81209,0 4.59285,2.29642 -0.3638,11.59584 -1.35853,13.58531 -1.1258,2.25159 -3.89444,2.5359 -5.43412,4.07559 -2.81085,2.81085 4.29534,-0.10988 -1.35854,2.71706 -2.87566,1.43784 -16.37794,2.67927 -19.01943,1.35853 -2.04991,-1.02495 -2.89965,-1.87224 -5.43412,-2.71706 -0.76835,-0.25612 -3.52995,0.54564 -4.07559,0 -0.32021,-0.32021 0.32021,-1.03832 0,-1.35853 -0.77822,-0.77822 -29.1057,0.78197 -29.88768,0 -0.32021,-0.32021 0.40504,-1.15601 0,-1.35853 -2.96834,-1.48417 -4.17448,1.25964 -6.79265,-1.35853"
   id="path611" /><path
   style="fill:#ffd5d5"
   d="m 857.23291,342.34975 c 10.51095,-2.49197 29.05811,2.58482 39.39739,0 7.05427,-1.76356 -1.45029,-1.35853 5.43413,-1.35853 9.96256,0 19.92512,0 29.88767,0 14.491,0 28.98199,0 43.47299,0 1.40597,0 6.0154,-0.77726 6.79265,0 0.64042,0.64042 -0.64042,2.07665 0,2.71706 0.32021,0.32021 1.03832,-0.32021 1.35853,0 0.32021,0.32021 -0.32021,1.03833 0,1.35853 0.71601,0.71601 2.00106,0.64253 2.71706,1.35853 0.78745,0.78745 0.39821,12.7889 0,13.58531 -0.61065,1.22132 -2.69774,4.97484 -4.07559,5.43413 -3.6904,1.23013 -21.92901,0.42075 -24.45355,0 -0.99881,-0.16647 -1.72414,-1.15995 -2.71706,-1.35854 -8.3081,-1.66161 -18.64614,0 -27.17062,0 -14.03815,0 -28.0763,0 -42.11445,0 -7.53029,0 -18.07905,1.82873 -24.45356,-1.35853 -1.83838,-0.91919 -4.8169,0.65859 -6.79265,0 -3.3594,-1.1198 -9.09086,-1.87935 -10.86825,-5.43412 -1.76571,-3.53142 11.81687,-13.1754 13.58531,-14.94384 z"
   id="path676" /><path
   style="fill:#808080"
   d="m 933.31064,302.95236 c 22.96773,1.72823 46.08399,1.35853 69.28506,1.35853 14.9438,0 29.8877,0 44.8315,0 15.9021,0 31.5873,-1.35853 47.5486,-1.35853 5.4341,0 10.8682,0 16.3024,0 1.8113,0 3.6227,0 5.4341,0 0.4528,0 1.8114,0 1.3585,0 -3.6992,0 -12.5717,3.56878 -16.3024,5.43412 -4.8344,2.41722 3.5781,0.53031 -4.0755,2.71707 -2.2203,0.63434 -4.581,0.69502 -6.7927,1.35853 -4.2719,1.28157 -7.9384,4.20886 -12.2268,5.43412 -1.3062,0.37322 -2.7693,-0.37322 -4.0756,0 -1.9472,0.55636 -3.5727,1.9193 -5.4341,2.71706 -10.3207,4.42318 -20.6978,9.74953 -31.2462,13.58531 -25.138,9.14109 -51.11527,10.86824 -77.43625,10.86824 -4.2767,0 -27.20754,1.34007 -29.88768,0 -2.54379,-1.27189 2.27333,-9.98078 2.71707,-10.86824 1.62033,-3.24067 -0.0975,-7.95627 1.35853,-10.86825 3.04613,-6.09227 1.15993,-14.0818 -1.35853,-20.37796 z"
   id="path678" /><path
   style="fill:#cccccc"
   d="m 957.76419,336.91563 c 6.36847,-0.11138 13.09567,0.61606 19.01943,-1.35853 3.3618,-1.1206 6.55013,-3.95433 9.50971,-5.43412 1.44854,-0.72427 7.88589,-1.03377 9.50972,-1.35854 4.04902,-0.8098 7.27345,-4.99524 10.86825,-6.79265 1.3931,-0.69656 4.041,-0.66197 5.4341,-1.35853 2.659,-1.32948 5.6008,-2.8004 8.1512,-4.07559 1.7959,-0.89795 4.8806,0.63733 6.7927,0 3.1633,-1.05445 6.2848,-1.91086 9.5097,-2.71706 6.6452,-1.66131 18.6076,0 25.8121,0 1.8113,0 3.6227,0 5.4341,0 0.4528,0 1.3585,0.45284 1.3585,0 0,-0.0119 -9.3417,2.63307 -9.5097,2.71706 -3.0665,1.53323 -5.2043,1.73475 -8.1512,2.71706 -1.8088,0.60293 -3.6916,3.20433 -5.4341,4.07559 -1.2808,0.64042 -2.93,0.49932 -4.0756,1.35853 -0.8101,0.60756 -0.5485,2.10951 -1.3585,2.71706 -0.8447,0.6335 -11.1979,5.43413 -12.2268,5.43413 -3.186,0 0.6404,-0.32021 -2.7171,1.35853 -1.6201,0.81007 -3.6474,-0.29779 -5.4341,0 -4.6381,0.77302 -9.2515,2.63098 -13.5853,4.07559 -4.6556,1.55185 -42.90988,-0.15908 -48.90711,-1.35853 z"
   id="path807" /><path
   style="fill:#cccccc"
   d="m 1016.181,326.04738 c 2.7171,0 5.4341,0 8.1512,0"
   id="path935" /><path
   style="fill:#333333"
   d="m 914.2912,308.38648 c -3.81784,-2.9e-4 -6.36663,-0.73685 -9.50971,1.35853 -6.08276,4.05517 -9.09401,17.54949 -6.79265,24.45356 0.2479,0.74372 2.33625,5.05331 2.71706,5.43412 0.32021,0.32021 1.03832,-0.32021 1.35853,0 5.30198,5.30199 -0.31447,0.7296 1.35853,4.07559 1.6844,3.36881 8.87136,9.74978 12.22678,10.86825 1.71842,0.57281 3.65792,-0.35524 5.43412,0 6.7549,1.35098 17.76016,3.03188 24.45355,1.35853 0.6213,-0.15532 0.73724,-1.20321 1.35853,-1.35853 1.31797,-0.32949 2.78678,0.4296 4.07559,0 0.42961,-0.1432 -0.25119,-0.98174 0,-1.35853 3.89297,-5.83945 6.71911,-9.14198 8.15119,-16.30237 1.34604,-6.7302 3.11634,-17.42233 1.35853,-24.45355 -0.31065,-1.2426 -1.94856,-1.6924 -2.71706,-2.71707 -8.30804,-11.07738 -16.52078,-12.22677 -29.88768,-12.22677 -3.1337,0 -7.79974,-0.6137 -10.86824,0 -7.15004,1.43 -4.97813,6.34612 -2.71707,10.86824 z"
   id="path937" /><path
   style="fill:#666666"
   d="m 930.59357,312.46208 c -8.61659,-0.27944 -17.52974,5.54843 -23.09502,12.22677 -0.64867,0.77841 -1.35853,6.43724 -1.35853,8.15119 0,2.48226 -0.35322,9.3331 0,9.50971 0.81007,0.40504 1.85785,-0.2864 2.71706,0 0.60755,0.20252 0.90569,0.90569 1.35853,1.35853 0.90569,0.45285 1.73471,1.11295 2.71706,1.35853 3.5401,0.88503 23.71755,1.15103 27.17062,0 2.70341,-0.90113 0.63398,-1.26796 1.35853,-2.71706 0.56727,-1.13454 3.99146,-2.54879 4.07559,-2.71706 0.40504,-0.81007 -0.21966,-1.83841 0,-2.71706 1.03326,-4.13303 5.8063,-22.84691 1.35853,-25.81208 -5.12162,-3.41442 -11.35304,-0.62121 -16.30237,1.35853 z"
   id="path1065" /><path
   style="fill:#1a1a1a"
   d="m 930.59357,321.97179 c -1.03341,0.71093 -7.30578,2.89791 -8.15118,5.43412 -0.29643,0.88929 -0.69687,10.17138 0,10.86825 2.07618,2.07618 3.08096,-2.21975 4.07559,-2.71706 0.40504,-0.20252 1.15601,0.40503 1.35853,0 1.29601,-2.59201 -1.55683,-2.61791 1.35853,-4.07559 0.82335,-0.41168 3.50631,-0.78925 4.0756,-1.35853 2.02517,-2.02518 -1.65339,-5.492 -2.71707,-8.15119 z"
   id="path1130" /><path
   style="fill:#666666;stroke-width:0.957789"
   d="m 493.55316,281.14606 c -3.5472,1.94928 -10.78287,-1.52403 -14.64311,0 -1.23483,0.48752 -1.69381,1.82496 -2.92863,2.31246 -2.81494,1.11136 -5.93803,2.34437 -8.78588,3.4687 -1.83477,0.72438 -1.40094,2.28744 -4.39293,3.4687 -4.04432,1.59671 -10.4843,-0.48569 -14.64313,1.15622 -0.43656,0.17236 0.34515,0.88371 0,1.15624 -1.23081,0.97185 -8.78586,2.27631 -8.78586,4.62492 0,1.07535 13.70822,-1.15623 14.64311,-1.15623 0.48811,0 1.80946,-0.27253 1.46431,0 -0.37195,0.2937 -8.09666,5.50905 -8.78587,5.78115 -1.6017,0.63236 -4.34605,1.11921 -5.85724,2.31247 -0.69029,0.54505 1.95241,0 2.92862,0 1.95241,0 3.90483,0 5.85725,0 0.48811,0 1.46431,0.38541 1.46431,0 0,-1.23527 -6.70759,0.83304 -7.32156,1.15623 -0.94507,0.49748 -5.22307,1.81172 -5.85724,2.31246 -0.48812,0.38541 -0.97622,3.08329 -1.46433,3.4687 -0.34513,0.27252 -1.11917,-0.27253 -1.46431,0 -0.34513,0.27252 0.21829,0.8115 0,1.15622 -0.87858,1.38748 -3.51434,2.08122 -4.39293,3.4687 -0.43657,0.68944 0.69028,1.76742 0,2.31246 -0.34515,0.27253 -1.11917,-0.27252 -1.46431,0 -1.09144,0.8618 -0.5382,2.49367 -1.46432,3.4687 -3.794,3.99436 -17.16102,11.37899 -14.64312,17.34347 0.83966,1.98898 2.26759,2.62959 4.39293,3.46869 3.01664,1.19097 36.00085,-0.33849 38.07212,-1.15624 0.43658,-0.17235 -0.34513,-0.8837 0,-1.15622 0.71656,-0.56579 30.07871,0.17682 35.1435,-1.15623 4.85341,-1.27743 12.12405,-17.66686 16.10743,-20.81217"
   id="path1195" /><path
   style="fill:#ffaaaa;stroke-width:1.08907"
   d="m 410.3729,330.12298 c -2.60624,2.50145 -6.47708,0.28441 -8.78164,3.48979 -0.66119,0.91965 -0.73583,2.40767 -1.25452,3.4898 -2.97394,6.20465 -5.01808,1.35431 -5.01808,10.4694 0,1.16326 -0.37401,2.44935 0,3.4898 0.84266,2.34409 16.73732,3.4898 18.8178,3.4898 23.41769,0 46.83537,0 70.25306,0 4.0608,0 7.20549,1.34202 8.78163,-5.2347 0.26208,-1.09354 0.50693,-9.76433 0,-10.4694 -0.57145,-0.79481 -8.2335,0 -8.78163,0 -1.74673,0 -28.71652,1.84047 -31.36298,0 -0.52895,-0.36785 -0.69348,-1.48478 -1.25452,-1.7449 -1.58686,-0.73572 -3.43122,0.73572 -5.01807,0 -0.56104,-0.26012 -0.72557,-1.37704 -1.25451,-1.7449 -3.24463,-2.25645 -8.93403,1.25568 -12.5452,0 -7.60837,-2.6456 -14.61114,-3.01756 -22.58134,-5.23469 z"
   id="path1197" /><path
   style="fill:#ffd5d5"
   d="m 387.18127,340.99122 c -6.82476,-0.25781 -24.64928,-3.55751 -31.24621,-1.35853 -12.20002,4.06667 -26.39683,2.71706 -39.39739,2.71706 -16.75521,0 -33.51043,0 -50.26564,0 -8.51075,0 -13.58531,1.17967 -13.58531,10.86825 0,0.90569 -0.64042,2.07664 0,2.71706 0.32021,0.32021 0.9535,-0.20252 1.35853,0 7.06258,3.53129 6.12676,2.71706 14.94384,2.71706 27.17062,0 54.34123,0 81.51185,0 11.16072,0 29.05943,1.723 39.39739,0 1.09016,-0.18169 4.38211,-2.19105 5.43412,-2.71706 2.11161,-1.0558 6.09762,-10.20476 4.07559,-12.22678 -1.82571,-1.82571 -10.98823,-2.46935 -12.22677,-2.71706 z"
   id="path1199" /><path
   style="fill:#808080"
   d="m 260.83791,293.44265 c -3.03456,3.92959 -7.47844,0.003 -10.86825,1.35853 -1.18922,0.47569 -1.61875,2.05807 -2.71706,2.71706 -4.29613,2.57768 -3.65703,0.6095 -8.15119,1.35853 -1.41253,0.23542 -2.71706,0.90569 -4.07559,1.35853 -3.62275,0.45284 -7.22658,1.09841 -10.86824,1.35853 -2.71016,0.19358 -5.4711,-0.44668 -8.15119,0 -2.82506,0.47084 -5.36049,2.07306 -8.15118,2.71706 -6.53103,1.50716 -10.26284,0.99148 -16.30237,2.71706 -2.22022,0.63435 -4.64875,0.50097 -6.79266,1.35853 -1.51597,0.60639 -2.52662,2.20074 -4.07559,2.71707 -1.28881,0.4296 -2.74344,-0.26643 -4.07559,0 -5.46689,1.09337 -0.62418,0.99135 -4.07559,2.71706 -1.21511,0.60755 -2.86049,-0.60756 -4.0756,0 -0.40503,0.20251 0.32021,1.03832 0,1.35853 -0.2092,0.2092 -8.72602,0.57484 -10.86824,2.71706 -1.57253,1.57253 -6.79266,1.84198 -6.79266,2.71706 0,1.35853 2.78678,-0.4296 4.0756,0 0.60755,0.20252 0.75097,1.15601 1.35853,1.35853 1.71842,0.57281 3.67683,-0.43932 5.43412,0 0.98236,0.24559 1.81138,0.90569 2.71706,1.35853 1.81138,0 3.6474,-0.29779 5.43413,0 0.99881,0.16647 1.71465,1.21533 2.71706,1.35853 13.07797,1.86828 0.26386,-2.6451 14.94384,1.35853 3.92241,-0.52339 6.19365,3.12815 9.50971,4.0756 24.61474,7.03278 -16.89739,-7.01579 16.30237,5.43412 8.61246,3.22967 18.54042,2.55739 27.17062,5.43412 4.63195,1.54399 8.50758,2.71706 13.5853,2.71706 1.83066,0 8.91104,1.95722 9.50972,1.35853 2.6167,-2.6167 -2.23588,-6.70762 -2.71706,-8.15118 -1.47721,-4.43163 0,-35.43666 0,-43.47298 z"
   id="path1203" /><path
   style="fill:#808080"
   id="path1254"
   d="m 163.33652,312.75043 c 0.57322,1.03428 1.05061,2.11778 1.54834,3.18927 0,0 13.46127,6.12411 13.46127,6.12411 v 0 c -0.50493,-1.0421 -0.9092,-2.10883 -1.39994,-3.15594 0,0 -13.60967,-6.15744 -13.60967,-6.15744 z" /><path
   style="fill:#000000"
   id="path1256"
   d="m 176.98454,315.52372 c 1.81389,1.93237 3.39317,4.07886 4.99359,6.18943 0.25191,0.32536 0.50382,0.65072 0.75574,0.97608 0,0 13.59441,5.86595 13.59441,5.86595 v 0 c -0.24818,-0.34803 -0.49637,-0.69607 -0.74455,-1.0441 -1.72736,-1.96949 -3.21598,-4.1714 -4.78994,-6.26738 0,0 -13.80925,-5.71998 -13.80925,-5.71998 z" /><path
   style="fill:#000000"
   id="path1307"
   d="m 189.2666,308.80193 c 1.83572,3.06568 4.52553,5.23002 7.3692,7.3014 3.30944,2.28687 6.49814,4.74342 9.38471,7.54869 4.76764,4.27312 10.47853,6.74199 16.20763,9.92362 1.15258,0.64008 2.09687,0.64119 3.46561,1.54153 -3.91983,-2.22901 -7.83966,-4.45802 -11.75948,-6.68702 0,0 13.75068,5.55995 13.75068,5.55995 v 0 c -4.50706,-2.72446 -9.01412,-5.44892 -13.52118,-8.17338 -3.5361,-1.61382 1.37512,0.60274 -2.34017,-0.98965 -0.37778,-0.16191 -1.46929,-0.73414 -1.11653,-0.52321 20.75216,12.40783 13.15276,8.00903 8.90384,4.97999 -2.83926,-2.93735 -6.03866,-5.48796 -9.41073,-7.79286 -2.63663,-2.00054 -5.72438,-3.68652 -7.2349,-6.7858 0,0 -13.69868,-5.90326 -13.69868,-5.90326 z" /><path
   style="fill:#000000"
   id="path1309"
   d="m 213.66487,306.014 c 2.31331,2.05011 4.00121,4.64662 5.77368,7.14715 1.83158,2.68757 3.64098,5.37038 5.17324,8.24075 1.49494,2.87462 3.70587,5.24934 6.17125,7.3137 5.92081,4.84628 12.9141,8.13121 19.74792,11.51091 0.33748,0.12534 0.67496,0.25068 1.01244,0.37602 0,0 -11.66974,-9.19258 -11.66974,-9.19258 v 0 c -0.31546,-0.14225 -0.63091,-0.2845 -0.94636,-0.42674 -4.89923,-2.22846 -9.65614,-5.39969 9.17514,5.72821 0.38044,0.22481 -0.78272,-0.41315 -1.15273,-0.65473 -0.28739,-0.18763 -2.30801,-1.71574 -2.51548,-1.87185 -2.49918,-1.86368 -4.79115,-4.03381 -6.38402,-6.74754 -1.56232,-2.91438 -3.24677,-5.70858 -5.13072,-8.432 -1.77628,-2.45137 -3.32493,-5.09198 -5.44537,-7.27132 0,0 -13.80925,-5.71998 -13.80925,-5.71998 z" /><path
   style="fill:#000000"
   id="path1315"
   d="m 233.77641,301.13761 c 1.22295,4.08278 3.35104,7.68241 5.96478,11.01065 2.48821,2.94941 5.32696,5.5122 8.53021,7.64833 0,0 5.7555,2.28464 5.7555,2.28464 v 0 c -2.50578,-2.22512 -5.0552,-4.41698 -7.27558,-6.93724 -2.60522,-3.20725 -4.80137,-6.63818 -5.92136,-10.66299 0,0 -7.05355,-3.34339 -7.05355,-3.34339 z" /><path
   style="fill:#000000"
   id="path1317"
   d="m 241.07981,310.12322 c 2.85631,3.04297 6.17707,5.60874 9.49109,8.1276 2.79058,2.27216 5.78151,4.08172 8.88935,5.88625 0,0 2.31,0.92177 2.31,0.92177 v 0 c 0.0126,-0.25579 0.21132,-0.57896 0.0379,-0.76738 -0.13044,-0.14169 -4.47527,-3.28827 -4.65964,-3.42228 -3.2611,-2.44718 -6.42726,-5.00646 -9.30909,-7.89848 0,0 -6.75958,-2.84748 -6.75958,-2.84748 z" /><path
   style="fill:#000000"
   id="path1321"
   d="m 234.99505,308.88637 c 3.21753,4.34966 6.84507,8.36254 10.49247,12.3498 3.28213,3.31489 1.58008,1.71376 5.10787,4.80156 0,0 6.42463,2.67967 6.42463,2.67967 v 0 c -1.72344,-2.49699 -0.72105,-1.16859 -3.08034,-3.92893 -3.45704,-3.89266 -6.90185,-7.80583 -9.96269,-12.02401 0,0 -8.98194,-3.87809 -8.98194,-3.87809 z" /><path
   style="fill:#000000"
   id="path1323"
   d="m 248.03802,325.04433 c 1.35503,1.03249 2.14369,2.7652 3.479,3.79514 0.87114,0.67193 1.84694,1.19595 2.77041,1.79392 0,0 4.10308,1.73017 4.10308,1.73017 v 0 c 0.33639,-0.0689 1.00517,0.1367 1.00919,-0.20665 0.006,-0.50858 -3.35319,-3.42461 -3.89626,-4.04392 0,0 -7.46542,-3.06866 -7.46542,-3.06866 z" /><path
   style="fill:#333333"
   d="m 289.41386,350.08206 c -19.45553,4.54228 -33.65264,-3.60189 -38.77477,-23.53626 -3.10949,-12.10158 -2.276,-27.65713 5.58014,-37.84401 3.93207,-5.09864 11.10761,-8.59023 16.45423,-11.87544 6.95743,-4.27496 9.6653,-5.97604 17.88504,-7.51157 16.31861,-3.04847 36.72567,7.16547 45.92878,20.53163 14.70686,21.35956 -8.78164,49.71763 -27.32834,59.37718 -2.86404,1.49166 -9.33817,5.92191 -12.73415,4.50695 -2.43184,-1.01325 -4.67395,-2.43232 -7.01093,-3.64848 z"
   id="path1388" /><path
   style="fill:#4d4d4d"
   d="m 297.21173,335.20199 c -17.0343,-4.11866 -20.60739,0.16137 -24.60981,-18.09931 -0.55413,-2.52818 -1.84707,-4.99173 -0.78694,-7.58311 3.68127,-8.99849 30.02365,-23.65364 39.27554,-23.89395 4.5394,-0.1179 7.21528,1.77914 10.94565,4.22079 13.52302,8.85126 4.07081,25.98193 -4.57857,34.55323 -5.58156,5.53116 -13.17327,7.84742 -20.24587,10.80235 z"
   id="path1390" /><path
   style="fill:#4d4d4d"
   d="m 301.0749,316.74499 c -1.22713,-1.49149 -4.87291,-0.33787 -6.65323,-1.78847 -9.12437,-7.43453 14.25303,-15.60674 12.94877,-3.43386 -0.35761,3.33762 -1.82092,2.22176 -6.29554,5.22233 z"
   id="path1392" /><path
   style="fill:#1a1a1a"
   d="m 300.64566,324.25656 c -11.06375,-1.92805 -2.45772,-15.43668 3.86317,-14.59391 4.35316,0.58041 8.56323,11.03511 3.79163,13.02006 -2.40517,1.00053 -5.1032,1.04923 -7.6548,1.57385 z"
   id="path1396" /><path
   style="fill:#e6e6e6"
   d="m 758.14494,331.83967 c -4.60928,7.15896 -11.13336,13.76261 -18.1712,18.67162 -5.6053,3.9098 -12.49399,6.21566 -18.45736,9.5862 -0.517,0.29221 -3.46328,1.93093 -3.29085,2.07462 12.10087,10.08386 35.5952,-7.62185 43.42487,-15.38083 0.67892,-0.67279 4.15875,-4.30048 3.21931,-5.86618 -1.93855,-3.23086 -4.48318,-6.05695 -6.72477,-9.08543 z"
   id="path1736" /><path
   style="fill:#e6e6e6"
   d="m 753.13713,468.26412 c -2.13895,-7.90636 -3.67419,-15.82644 -8.87098,-22.46318 -5.5799,-7.12599 -13.42426,-12.80002 -22.03437,-15.59545 -2.75384,-0.89409 -10.94815,-1.81815 -7.94096,3.93463 2.7495,5.2598 9.37894,9.09102 13.30647,13.52083 8.26984,9.32742 13.79456,19.11288 19.74508,29.97475 2.9999,5.47589 4.71282,11.19125 7.36864,16.81161 0.46342,0.9807 1.02151,3.48545 1.7885,2.71847 1.07415,-1.07413 -5.62649,-18.19952 -5.15089,-21.81932 0.3172,-2.41415 1.19234,-4.72156 1.78851,-7.08234 z"
   id="path1738" /><path
   style="fill:#e6e6e6"
   d="m 756.57105,523.06282 c -3.82834,-17.51397 -13.98276,-37.48932 -33.05155,-41.42095 -1.2123,-0.24996 -18.49832,-1.75851 -18.09966,1.43077 0.41005,3.28027 8.16392,6.56887 10.37333,8.51312 7.59567,6.68406 14.8993,13.84323 21.31896,21.67625 3.50589,4.27775 6.21765,8.22552 8.87098,13.02005 2.02778,3.66416 3.94831,7.33095 5.50859,11.23159 2.24813,5.6202 0.57207,1.52393 2.79007,6.72465 6.82062,15.99286 -0.59271,-11.84517 -0.3577,-13.59237 0.35689,-2.65338 1.76466,-5.05541 2.64698,-7.58311 z"
   id="path1740" /><path
   style="fill:#e6e6e6"
   d="m 760.64884,577.36075 c -4.31752,-11.35422 -12.9961,-19.33698 -20.96126,-28.11474 -6.95888,-7.66882 -19.0403,-15.49177 -28.54452,-19.60162 -4.77397,-2.06438 -9.92021,-2.21498 -15.02344,-2.36078 -2.813,-0.0804 -5.77139,-0.11483 -8.58481,-0.0715 -0.33467,0.005 -1.21716,-0.18448 -1.00157,0.0715 2.98157,3.54054 11.27487,5.39307 14.88036,7.65465 6.50674,4.08142 11.8005,8.4515 16.95501,14.0216 8.53904,9.22749 17.1055,19.13681 23.67979,29.9032 5.0569,8.28144 7.63123,19.95373 15.95346,25.75396 3.60348,2.51148 2.70211,-26.99585 2.64698,-27.25627 -0.75163,-3.55074 -2.95699,-6.62926 -4.43549,-9.94389"
   id="path1742" /><path
   style="fill:#e6e6e6"
   d="m 497.238,448.59095 c 9.99698,-8.45065 21.36168,-15.10132 33.19463,-20.6747 5.87265,-2.76605 12.27099,-5.02232 18.5289,-6.79619 1.6649,-0.47193 4.80595,-2.78183 5.07935,-1.07308 1.80345,11.27136 -39.40561,40.18735 -48.2896,47.43021 -4.63145,3.77589 -9.64453,6.99182 -13.80725,11.30313 -1.64684,1.70562 -3.14431,3.6904 -4.36395,5.7231 -0.25293,0.42154 -1.03263,1.53185 -0.57232,1.35924 1.15558,-0.43334 2.83139,-3.78376 3.93471,-4.72156"
   id="path1744" /><path
   style="fill:#e6e6e6"
   d="m 493.01713,524.99437 c 11.70091,-9.16331 22.77696,-17.56021 36.27086,-23.89396 9.5877,-4.50026 18.84271,-8.52385 28.97376,-11.66082 4.60176,-1.42488 4.16231,-1.31891 8.65636,-2.2177 0.30756,-0.0615 1.20619,-0.29178 0.93002,-0.14308 -10.44202,5.62252 -15.66979,8.08178 -24.32365,17.31239 -15.19606,16.20882 -23.77717,38.53421 -40.42019,53.36792 -11.94949,10.65044 -11.55458,-5.33898 -8.87098,-13.44929 1.07737,-3.25596 3.10842,-6.97615 4.65011,-10.01542"
   id="path1746" /><path
   style="fill:#e6e6e6"
   d="m 496.5226,597.67776 c -0.0477,-1.81231 -0.92378,-3.80071 -0.14308,-5.43695 2.18432,-4.578 21.69729,-20.97766 25.25367,-24.03702 6.61293,-5.68874 13.25937,-11.51252 20.24587,-16.74008 7.1287,-5.33396 10.08972,-6.4811 10.01562,-5.93772 -0.73023,5.35493 -6.9601,11.13757 -9.37176,15.81007 -3.92888,7.61206 -7.14809,15.75009 -12.16183,22.74933 -3.83084,5.34791 -8.35974,10.13634 -11.87566,15.73853 -2.69521,4.29449 -7.73706,19.25057 -12.23337,22.03395 -2.6056,1.61296 -2.79806,-3.65997 -5.29397,-0.14308 -2.64734,3.73027 -3.03266,9.04813 -3.64855,8.22696 -2.25381,-3.00502 1.67691,-18.26349 2.14621,-21.10394"
   id="path1748" /><path
   style="fill:#e6e6e6"
   d="m 749.7032,641.88873 c 2.95851,16.93927 -3.93797,32.3898 -9.22868,47.93097 -1.70425,5.00613 -1.25312,10.115 -2.28929,15.16623 -0.93441,4.55519 -4.11657,8.69096 -6.36707,12.66236 -1.09336,1.92943 -4.53396,10.53509 -6.93939,10.80235 -0.69094,0.0768 -1.53211,-1.5212 -2.93315,-1.28769 -10.33773,1.72292 -20.65995,3.98436 -31.19151,4.72155 -9.005,0.63034 -19.94822,-1.62368 -28.47298,2.28925 -10.28022,4.71869 -18.37053,31.40998 -20.46048,42.20787 -0.54049,2.79247 -3.49417,9.49584 -1.71696,12.1616 2.92346,4.3851 16.94749,-11.31065 15.23805,-13.02006 -0.63296,-0.63295 -2.48299,3.20747 -2.57545,3.5054 -1.12222,3.61599 1.29319,8.08203 4.79319,9.44312 16.13481,6.27452 53.25697,-25.88245 62.8838,-35.69785 2.76616,-2.82035 11.97244,-11.52326 16.02499,-6.22388 3.78379,4.94794 -4.72527,10.87168 -7.72634,12.51929 -9.18518,5.04275 -19.20669,9.92272 -27.47141,16.38238 -3.12604,2.44329 -5.34198,6.17091 -8.58482,8.37004 -5.65428,3.83443 -13.21086,6.67353 -19.67354,8.8708 -3.38528,1.15098 -24.64931,-3.40361 -24.18058,-1.21615 0.0383,0.17855 7.65089,-0.85387 6.79632,-9.22851 -0.22349,-2.19017 -1.69086,-5.39516 -1.28772,-7.51157 1.48236,-7.78228 3.67688,-15.7431 8.01249,-22.46317 3.94743,-6.11839 12.64834,-0.97917 18.24274,-0.57231 5.77207,0.41977 12.73709,-0.98259 18.24274,-2.50386 10.40827,-2.87591 17.98467,-8.59903 26.82756,-14.45083 5.08835,-3.36723 10.94016,-5.16919 16.16807,-8.22696 7.24429,-4.23714 9.41078,-25.25481 10.44486,-32.40707 0.86902,-6.01058 6.98325,-42.74185 3.14777,-46.8579 -1.78271,-1.91311 -3.81547,-3.57694 -5.72321,-5.3654 z"
   id="path1750" /><path
   style="fill:#e6e6e6"
   d="m 614.49231,738.53761 c 17.00043,6.14805 28.68231,23.96017 26.82756,42.13634 -0.30416,2.98066 -0.17671,6.00871 -2.14621,8.44158 -5.19231,6.41391 -17.20482,-17.01231 -20.24586,-19.67317 -3.73488,-3.26796 -7.738,-6.64819 -12.09029,-9.08542 -3.87738,-2.1713 -8.73562,-2.77566 -12.59106,-5.00772 -4.49511,-2.60238 -5.86665,-7.90188 -11.51797,-9.44312 -5.97579,-1.62973 -14.15515,-0.68564 -20.38894,-0.57231 -6.61339,0.12025 -11.99898,2.82948 -18.45736,3.29079 -1.73252,0.12375 0.5957,-3.95686 0.64386,-3.93463 7.47028,3.44775 3.52641,11.04896 6.00937,17.67007 2.47871,6.60977 7.27019,9.1122 12.87723,12.94852 2.24616,1.53682 3.77354,3.24212 6.15245,4.65002 3.00545,1.7787 7.19244,1.59638 10.37333,3.21925 2.72143,1.38846 5.54237,2.33738 8.37019,3.43386 1.03358,0.40076 3.97632,0.33661 3.14777,1.07308 -1.21685,1.08162 -5.10841,-0.12408 -6.51015,-0.35769 -13.22357,-2.20389 -24.13466,-6.05654 -35.2693,-13.73545 -2.57892,-1.77853 -4.42528,-4.3303 -6.72477,-6.36695 -3.92102,-3.47284 -8.74172,-4.91539 -12.87723,-7.86927 -5.72134,-4.08659 -11.04862,-13.18864 -12.09029,-19.95931 -0.72023,-4.68146 2.49168,-9.12943 2.64699,-14.0216 0.27364,-8.61961 -1.38081,-17.14641 -3.50547,-25.46781 -1.42831,-5.59413 -6.2877,-26.91951 2.64699,-28.54397 3.4454,-0.62642 6.65004,5.6188 7.86942,8.01234 3.58622,7.03949 3.11117,15.80136 4.57857,23.32164 1.19899,6.14475 3.33242,12.05334 4.36394,18.24239 0.56596,3.39568 0.0849,11.09859 2.71853,13.87852 8.76617,9.25301 30.1483,-2.15373 40.42019,-0.28615 4.84401,0.88071 9.22256,2.809 13.95033,3.93463 4.99019,1.18812 16.08171,0.61425 20.81818,0.0715 z"
   id="path1752" /><path
   style="fill:#800000"
   d="m 735.60979,154.35197 c 17.8396,-0.86914 32.23788,14.20246 33.12309,31.90629 0.52731,10.54609 -0.85184,21.16341 -0.57232,31.69168 0.26525,9.99078 0.32969,19.92882 -0.42924,29.90321 -0.15027,1.97497 -1.16638,27.39935 -4.00625,27.39935 -1.86445,0 -1.9069,-5.04294 -2.00313,-5.86618 -1.33553,-11.42601 -1.80338,-22.85347 -3.43392,-34.26707 -2.25719,-15.79998 -2.80559,-32.66576 -8.15558,-47.85944 -1.05853,-3.00616 -3.04501,-5.67986 -4.22087,-8.6562 -1.37117,-3.4707 -2.11406,-7.26023 -3.86317,-10.58774 -3.01609,-5.73782 -4.56536,-6.58733 -6.43861,-13.6639 z"
   id="path1754" /><path
   style="fill:#800000"
   d="m 494.09023,274.82327 c 2.21775,-0.38154 4.40376,-1.20653 6.65324,-1.14462 4.70498,0.12949 9.13226,20.99111 7.72633,25.39626 -1.04978,3.28927 -11.92708,-10.55157 -12.37644,-11.01697 -0.63893,-0.66174 -7.41672,-5.15078 -7.15402,-5.79464 2.34464,-5.74656 12.79245,-15.75887 -0.85848,1.86001 -0.71221,0.91923 -0.49814,-2.28264 -0.93002,-3.36232 -1.08707,-2.71764 -1.0477,-2.42766 -1.7885,-4.65003 -0.0644,-0.19328 -0.36796,-0.70647 -0.21463,-0.57231 0.57457,0.50274 0.67977,1.92562 1.43081,1.78847 2.59641,-0.47411 6.13541,-4.75594 7.51171,-2.50385 2.23585,3.65858 -1.21618,8.51775 -1.21618,12.80544 0,2.76032 2.93329,6.85269 4.14933,9.37158 2.03753,4.22052 3.45934,8.67859 5.50859,12.87698 1.83546,3.76037 2.87598,4.84308 3.00469,4.65002 4.20928,-6.3138 -10.65692,-27.38048 -15.09497,-31.47706"
   id="path1882" /><path
   style="fill:#800000"
   d="m 515.69536,721.15369 c 5.87952,3.9669 16.73321,-4.90879 21.67667,0.85846 4.55296,5.31169 12.61129,22.54412 8.01249,28.75859 -1.78577,2.41316 -4.80789,2.48992 -6.86785,4.43541 -1.78471,1.68552 -1.52797,7.00346 -4.65011,6.86772 -3.89825,-0.16949 -14.85394,-10.69726 -13.95033,-15.66699 0.76158,-4.18863 10.483,12.59031 13.66417,6.58156 5.96773,-11.27217 -16.33387,-20.18642 -23.96595,-22.53471"
   id="path1884" /><path
   style="fill:#800000"
   d="m 546.02838,734.4599 c 5.20451,1.48917 8.94606,-7.64942 11.80413,-7.86926 0.0243,-0.002 2.58776,12.94166 1.93158,14.45083 -0.64447,1.48226 -3.00527,-1.19084 -4.50703,-1.78847 -6.89624,-2.74437 -0.15502,0.87782 -9.22868,-4.7931 z"
   id="path1886" /><path
   style="fill:#800000"
   d="m 548.46075,755.77846 c 6.13156,-0.30763 22.92885,-0.65483 29.11684,-3.07617 1.25512,-0.49112 3.55994,-3.31918 5.00781,-2.93309 2.35018,0.6267 4.52912,1.8585 6.36708,3.43386 0.96097,0.82367 3.8561,3.25765 2.79006,2.5754 -12.88406,-8.24564 -14.36199,-8.65551 -28.47298,-3.64848 -4.75011,1.68549 -9.94003,2.48423 -14.80881,3.64848 z"
   id="path1888" /><path
   style="fill:#800000"
   d="m 560.40796,757.42385 c -2.07467,-1.38309 -4.0559,-2.91779 -6.224,-4.14925 -0.83277,-0.47301 -1.84749,-0.53182 -2.71852,-0.93001 -8.43559,-3.85619 -2.50636,-12.32723 8.29865,-3.72001 0.87207,0.69468 2.42254,1.10574 2.50391,2.2177 0.16637,2.27371 -3.79647,5.37837 -1.86004,6.58157 9.50999,5.90901 20.2832,-15.14959 2.00312,-9.5862"
   id="path1890" /><path
   style="fill:#800000"
   d="m 722.01716,734.60298 c -7.14618,2.55616 -14.23136,5.39634 -21.46205,7.72619 -4.19898,1.35298 -8.60485,2.28457 -12.37644,4.72156 -2.20122,1.42229 -9.78101,11.95047 -2.93315,12.30466 6.01478,0.31111 12.0419,-7.55119 17.02656,-10.1585 4.03881,-2.11257 7.69989,-2.63474 12.01874,-3.79156 2.20609,-0.5909 4.63657,-2.18419 7.01094,-1.78847 2.6039,0.43398 -1.64404,3.56584 -5.43705,6.65311 -2.1058,1.71399 -17.15449,20.49563 -13.16339,22.3201 7.86112,3.59359 13.77287,-20.99818 15.88191,-25.25319 1.50225,-3.03079 13.05624,-17.39462 3.43393,-12.7339 -2.85113,1.38099 -3.97225,5.41843 -4.07779,8.58465 -0.0491,1.47228 2.84448,-1.08207 3.86317,-2.14616 6.94829,-7.25795 6.45553,-5.93383 7.6548,-10.73082"
   id="path1892" /><path
   style="fill:#800000"
   d="m 731.81816,738.03684 c 11.41803,-8.29952 -8.34074,-0.71865 -6.72477,-0.50077 2.22764,0.30035 6.72477,-1.74703 6.72477,0.50077 0,3.787 -4.52921,6.07137 -6.72477,9.15696 -0.89342,1.25558 -3.19298,4.73512 -1.71697,4.29233 2.8364,-0.8509 3.99517,-4.74209 5.07935,-7.0108 1.04398,-2.18457 2.2416,-4.29233 3.36239,-6.43849 z"
   id="path1894" /><path
   style="fill:#800000"
   d="m 680.02309,727.87833 c 7.85026,-0.32857 15.62488,1.03527 21.53359,-4.93617 3.62223,-3.6607 7.69494,-7.51696 10.94564,-11.51774 5.18367,-6.37978 9.05203,-18.60757 16.7404,-22.6778 6.18568,-3.27471 7.46187,2.12743 7.58325,7.22542 0.20655,8.67471 -9.4509,24.71805 -16.16807,30.47552 -8.07906,6.92477 -21.63056,5.93582 -31.40613,7.29695 -1.8211,0.25357 -4.48466,1.81334 -5.50859,0.28616 -1.33459,-1.99054 -5.85518,-5.06388 -3.72009,-6.15234 3.35056,-1.70809 7.28197,1.99412 11.01718,2.43232 2.88131,0.33803 5.15043,-2.67169 7.72634,-4.00617"
   id="path1896" /><path
   style="fill:#800000"
   d="m 721.731,722.72754 c 7.14364,-2.65507 9.86826,-11.82724 17.16964,-14.09314 1.48368,-0.46044 -0.54096,3.16203 -1.43081,4.43541 -1.37383,1.96597 -8.16593,9.57153 -8.79944,9.87235 -2.09051,0.99268 -5.2967,-1.84473 -6.93939,-0.21462 -7.33243,7.27632 3.51141,9.80657 -10.73102,13.73545"
   id="path1898" /><path
   style="fill:#000000"
   d="m 627.01184,232.32923 c 0.83993,2.70156 -0.33184,5.56154 -0.14308,8.2985 0.10195,1.47833 0.0916,2.95904 0.21462,4.43541 1.42202,17.06398 13.67349,-8.50846 15.81037,-7.44004 1.62147,0.81072 -0.22627,5.93775 -0.57232,7.08234 -3.35858,11.10892 -23.03819,20.29427 -20.03124,3.00463 0.56283,-3.23624 1.53759,-5.27521 3.2193,-7.79773"
   id="path1902" /><path
   style="fill:#000000"
   d="m 627.79878,214.7307 c -0.60472,2.22845 -0.77544,4.5374 -1.21618,6.79618 -1.29639,6.64384 -1.96381,13.39577 -3.29085,20.03086 -0.57447,2.87229 -0.75551,5.77149 -0.21462,8.65619 0.0258,0.13735 0.18688,1.17852 0.21462,1.14462 1.45598,-1.7795 1.43626,-6.39604 1.86004,-8.65619 0.62952,-3.35734 2.34184,-6.27927 2.86161,-9.65774 0.9127,-5.93241 -0.0313,-12.32478 -0.21462,-18.31392 z"
   id="path1904" /></svg>
